<?xml version="1.0" encoding="iso-8859-1"?>
<!-- Generator: Adobe Illustrator 16.0.0, SVG Export Plug-In . SVG Version: 6.00 Build 0)  -->
<!DOCTYPE svg PUBLIC "-//W3C//DTD SVG 1.1//EN" "http://www.w3.org/Graphics/SVG/1.1/DTD/svg11.dtd">
<svg xmlns="http://www.w3.org/2000/svg" xmlns:xlink="http://www.w3.org/1999/xlink" version="1.1" id="Capa_1" x="0px" y="0px" width="512px" height="512px" viewBox="0 0 30.625 30.625" style="enable-background:new 0 0 30.625 30.625;" xml:space="preserve">
<g>
	<g>
		<path d="M4.743,10.523l0.108-0.567L4.173,10.15L3.861,9.496L3.282,10.1L2.833,9.58l-0.211,0.686l-0.72-0.235l0.272,0.606    L1.65,10.784l0.44,0.399c-0.019,0.062-0.038,0.125-0.049,0.19c-0.013,0.082-0.021,0.166-0.021,0.251    c0,0.843,0.683,1.526,1.526,1.526c0.841,0,1.525-0.683,1.525-1.526c0-0.168-0.034-0.327-0.084-0.479l0.309-0.427L4.743,10.523z" fill="#364f6b"/>
		<path d="M1.612,16.837v0.25h0.543v3.188h1.092v-3.188h0.607v3.188h1.093v-3.188h0.496v-0.25H5.117l-0.04-0.513h1.285v4.141h0.354    v-4.141h0.546v-0.727h-2.24l-0.002-0.029l0.401-2.187h-1.12c0,0-0.208,0.641-0.783,0.675c-0.575,0.033-0.792-0.675-0.792-0.675    H2.394H2.018H1.819l0.301,1.946l-0.019,0.27H0.276v0.727h0.437v4.141h0.355v-4.141h0.983l-0.035,0.513H1.612z M4.524,14.633    l-0.154,0.363c-0.008-0.002-0.015-0.007-0.022-0.007c-0.115,0.002-0.205,0.126-0.203,0.278c0.001,0.06,0.019,0.112,0.043,0.156    l-0.073,0.173H2.899l-0.05-0.141c0.036-0.049,0.059-0.118,0.059-0.192c0-0.151-0.092-0.274-0.207-0.274    c-0.006,0-0.011,0.004-0.018,0.005l-0.129-0.362L4.524,14.633L4.524,14.633z" fill="#364f6b"/>
		<path d="M23.818,10.872l0.108-0.567l-0.678,0.193l-0.312-0.653l-0.579,0.604l-0.449-0.521l-0.21,0.688l-0.72-0.235l0.271,0.607    l-0.523,0.147l0.439,0.398c-0.019,0.062-0.037,0.125-0.049,0.19c-0.013,0.082-0.02,0.167-0.02,0.252    c0,0.843,0.683,1.525,1.525,1.525c0.842,0,1.524-0.682,1.524-1.525c0-0.168-0.034-0.328-0.083-0.479l0.309-0.428L23.818,10.872z" fill="#364f6b"/>
		<path d="M16.353,20.545v-4.438h0.584v-0.779h-2.415v-0.585l0.2-0.959c0.033-0.241,0.075-0.606,0.091-0.984    c0.029-0.644,0.125-2.688-1.729-2.688s-1.804,1.707-1.804,1.707l0.136,2.215l0.208,0.811v0.484H9.449v0.778h0.439v4.438h0.394    v-4.438H11.7l0.188,0.55H10.88v0.267h1.158l-0.015,2.938h-0.065v0.318h0.064h0.624h0.057v-0.318H12.66l0.133-2.938h0.405    l0.116,2.938h-0.046v0.318h0.058h0.029h0.579h0.005h0.074v-0.318h-0.074v-0.149c-0.001,0-0.004-2.159-0.005-2.788h1.054v-0.267    h-0.962l0.234-0.55h1.699v4.438L16.353,20.545L16.353,20.545z M13.509,13.176v0.521h0.002l0.187,0.089l-0.167,0.301h0.414    l-0.052,1.057c-0.021-0.009-0.044-0.015-0.067-0.015c-0.096,0-0.177,0.083-0.211,0.201h-1.02c-0.026-0.134-0.11-0.234-0.215-0.234    c-0.012,0-0.024,0.003-0.037,0.004l-0.111-1.012h0.48l-0.176-0.334l0.146-0.037V13.16c-0.601-0.188-1.039-0.744-1.039-1.406    c0-0.05,0.009-0.097,0.014-0.146c0.409-0.028,1.787-0.155,1.823-0.604c0.132,0.244,0.828,0.854,1.109,0.9    C14.527,12.518,14.09,13.019,13.509,13.176z" fill="#364f6b"/>
		<path d="M16.429,5.098C16.415,5.144,16.4,5.19,16.392,5.239c-0.01,0.06-0.016,0.123-0.016,0.186c0,0.622,0.504,1.125,1.125,1.125    c0.623,0,1.125-0.503,1.125-1.125c0-0.125-0.024-0.242-0.062-0.354l0.228-0.315l-0.408-0.144l0.08-0.418l-0.5,0.143l-0.23-0.482    l-0.428,0.444l-0.329-0.383L16.82,4.422l-0.53-0.173l0.199,0.447l-0.386,0.108L16.429,5.098z" fill="#364f6b"/>
		<path d="M18.63,8.889h0.947v3.052h0.262V8.889h0.402V8.353h-1.652V8.332l0.295-1.612h-0.825c0,0-0.154,0.473-0.577,0.498    c-0.424,0.024-0.584-0.498-0.584-0.498h-0.246h-0.277h-0.145l0.222,1.437l-0.015,0.197H15.09V8.89h0.322v3.052h0.262V8.889H16.4    l-0.026,0.378h-0.298v0.184h0.4v2.351h0.806V9.451h0.447v2.351h0.806V9.451h0.366V9.267H18.66L18.63,8.889z M18.109,7.909    c-0.006,0-0.011-0.004-0.017-0.004c-0.084,0.001-0.151,0.093-0.15,0.205c0,0.044,0.014,0.082,0.032,0.115l-0.054,0.128h-0.896    l-0.038-0.104c0.026-0.036,0.044-0.086,0.044-0.142c0-0.111-0.068-0.202-0.152-0.202c-0.004,0-0.009,0.003-0.013,0.003    L16.77,7.641h1.454L18.109,7.909z" fill="#364f6b"/>
		<path d="M26.206,5.098c-0.015,0.045-0.029,0.092-0.037,0.141c-0.01,0.06-0.016,0.122-0.016,0.185c0,0.622,0.503,1.125,1.125,1.125    c0.62,0,1.125-0.503,1.125-1.125c0-0.125-0.025-0.241-0.062-0.354l0.229-0.315L28.16,4.611l0.08-0.418l-0.5,0.143l-0.231-0.482    l-0.426,0.445l-0.332-0.384l-0.154,0.506l-0.53-0.173l0.2,0.447L25.88,4.803L26.206,5.098z" fill="#364f6b"/>
		<path d="M27.837,6.718c0,0-0.153,0.472-0.578,0.498c-0.424,0.024-0.584-0.498-0.584-0.498h-0.246h-0.277h-0.145l0.222,1.435    l-0.015,0.199h-1.346v0.537h0.322v3.053h0.262V8.889h0.725l-0.025,0.377h-0.298v0.185h0.399v2.351h0.807V9.451h0.447v2.351h0.806    V9.451h0.366V9.266h-0.241l-0.029-0.377h0.947v3.053h0.262V8.889h0.402V8.352h-1.652l-0.002-0.021l0.295-1.613H27.837z     M27.886,7.909c-0.006-0.001-0.01-0.004-0.017-0.004c-0.084,0.001-0.151,0.093-0.149,0.206c0,0.043,0.015,0.082,0.033,0.115    l-0.056,0.127h-0.896l-0.037-0.104c0.027-0.036,0.043-0.086,0.043-0.142c0-0.111-0.067-0.202-0.152-0.202    c-0.005,0-0.008,0.003-0.013,0.004l-0.097-0.267h1.453L27.886,7.909z" fill="#364f6b"/>
		<path d="M5.826,11.745h0.29V8.472h1.046l0.139,0.405H6.557v0.197h0.854L7.4,11.24H7.353v0.235h0.047h0.46h0.042V11.24H7.869    l0.098-2.166h0.299l0.085,2.166H8.317v0.235H8.36h0.021h0.427h0.004h0.054V11.24H8.812v-0.11c-0.001,0-0.003-1.592-0.003-2.056    h0.777V8.877h-0.71l0.172-0.405h1.253v3.272h0.29V8.472h0.431V7.898H9.241V7.466l0.148-0.708c0.024-0.176,0.055-0.446,0.067-0.725    c0.021-0.475,0.092-1.982-1.275-1.982c-1.367,0-1.329,1.259-1.329,1.259l0.1,1.632l0.153,0.599v0.357H5.502v0.574h0.324V11.745z     M7.131,5.153c0.301-0.02,1.318-0.114,1.344-0.444c0.097,0.179,0.611,0.629,0.818,0.663C9.247,5.825,8.924,6.194,8.496,6.311    v0.383h0.002l0.138,0.065L8.511,6.982h0.305L8.778,7.761C8.763,7.754,8.747,7.75,8.729,7.75c-0.071,0-0.131,0.061-0.156,0.148    H7.822c-0.02-0.099-0.083-0.173-0.159-0.173c-0.009,0-0.018,0.002-0.027,0.003L7.554,6.982h0.354l-0.13-0.247l0.108-0.027V6.297    C7.443,6.158,7.121,5.749,7.121,5.261C7.121,5.224,7.128,5.189,7.131,5.153z" fill="#364f6b"/>
		<path d="M12.16,0.985c-0.011,0.036-0.022,0.073-0.029,0.111c-0.008,0.048-0.012,0.097-0.012,0.147    c0,0.493,0.399,0.891,0.891,0.891c0.492,0,0.891-0.398,0.891-0.891c0-0.099-0.019-0.191-0.049-0.28l0.181-0.25L13.71,0.599    l0.063-0.331l-0.397,0.114L13.194,0l-0.338,0.353l-0.262-0.304L12.471,0.45l-0.42-0.138l0.158,0.354l-0.305,0.086L12.16,0.985z" fill="#364f6b"/>
		<path d="M11.356,6.404h0.207V3.987h0.574l-0.02,0.299h-0.236v0.146h0.317v1.862h0.638V4.431h0.354v1.862h0.638V4.431h0.29V4.286    h-0.19l-0.023-0.299h0.75v2.417h0.207V3.987h0.319V3.562h-1.308l-0.002-0.018l0.234-1.276h-0.653c0,0-0.122,0.375-0.457,0.395    c-0.335,0.02-0.463-0.395-0.463-0.395h-0.194h-0.219h-0.115l0.174,1.137l-0.01,0.158h-1.066v0.425h0.255L11.356,6.404    L11.356,6.404z M13.582,2.999l-0.09,0.212c-0.005,0-0.008-0.003-0.013-0.003c-0.066,0.001-0.119,0.074-0.118,0.162    c0,0.035,0.011,0.065,0.025,0.091l-0.042,0.102h-0.709l-0.03-0.083c0.021-0.029,0.035-0.068,0.035-0.112    c0-0.089-0.054-0.161-0.121-0.161c-0.003,0-0.007,0.002-0.01,0.003l-0.076-0.211H13.582z" fill="#364f6b"/>
		<path d="M2.277,0.985C2.267,1.021,2.255,1.058,2.249,1.096C2.241,1.144,2.236,1.193,2.236,1.243c0,0.493,0.399,0.891,0.891,0.891    c0.492,0,0.891-0.398,0.891-0.891c0-0.099-0.02-0.191-0.049-0.28l0.181-0.25L3.826,0.599l0.063-0.331L3.493,0.382L3.312,0    L2.973,0.353L2.712,0.048L2.588,0.449l-0.42-0.138l0.158,0.355L2.021,0.752L2.277,0.985z" fill="#364f6b"/>
		<path d="M1.473,6.404H1.68V3.987h0.575L2.234,4.286H1.999v0.146h0.317v1.862h0.638V4.431h0.354v1.862h0.638V4.431h0.29V4.286    h-0.19L4.021,3.987h0.75v2.417h0.208V3.987h0.318V3.562H3.989L3.987,3.544l0.234-1.276H3.568c0,0-0.122,0.375-0.458,0.395    C2.776,2.682,2.649,2.268,2.649,2.268H2.455h-0.22H2.119l0.176,1.137L2.284,3.562H1.218v0.425h0.255V6.404z M3.698,2.999    L3.608,3.21c-0.005,0-0.008-0.003-0.013-0.003c-0.067,0.001-0.12,0.074-0.119,0.162c0,0.035,0.011,0.065,0.026,0.091L3.459,3.562    H2.75L2.72,3.479C2.742,3.45,2.755,3.411,2.755,3.367c0-0.089-0.054-0.161-0.12-0.161c-0.004,0-0.007,0.002-0.011,0.003    l-0.077-0.21H3.698z" fill="#364f6b"/>
		<path d="M20.816,6.935h0.229V4.343h0.828l0.11,0.321h-0.588V4.82h0.676l-0.008,1.715h-0.038v0.186h0.037h0.365h0.033V6.535h-0.025    l0.078-1.715h0.236l0.067,1.715H22.79v0.186h0.035h0.016h0.338h0.004h0.043V6.535h-0.043V6.448c-0.002,0-0.004-1.26-0.004-1.627    h0.617V4.665h-0.562l0.135-0.321h0.993v2.591h0.229V4.343h0.342V3.889h-1.41V3.547l0.117-0.56c0.02-0.141,0.044-0.354,0.054-0.574    c0.017-0.376,0.073-1.57-1.01-1.57S21.63,1.84,21.63,1.84l0.08,1.292l0.121,0.474v0.283h-1.27v0.455h0.257v2.591H20.816z     M21.85,1.715c0.239-0.016,1.043-0.09,1.065-0.352c0.076,0.142,0.482,0.499,0.647,0.525c-0.038,0.359-0.292,0.651-0.632,0.743    v0.304h0.002l0.107,0.053l-0.098,0.175h0.242l-0.031,0.618c-0.012-0.005-0.025-0.009-0.038-0.009    c-0.057,0-0.104,0.049-0.124,0.117h-0.595c-0.015-0.079-0.063-0.137-0.125-0.137c-0.007,0-0.015,0.001-0.021,0.002l-0.065-0.591    h0.28l-0.104-0.195l0.085-0.021V2.622c-0.351-0.11-0.606-0.434-0.606-0.821C21.841,1.771,21.847,1.744,21.85,1.715z" fill="#364f6b"/>
		<circle cx="27.468" cy="16.46" r="2.208" fill="#364f6b"/>
		<polygon points="29.462,28.93 29.311,28.93 29.311,24.999 29.311,24.629 29.311,24.126 29.425,24.126 29.466,23.302     30.225,23.302 30.102,19.645 28.321,19 27.507,19.977 26.665,19 25.247,19 24.952,18.902 21.646,17.809 21.304,18.84     24.718,19.973 25.249,20.146 25.453,24.126 25.593,24.126 25.593,24.629 25.593,24.999 25.593,28.93 25.442,28.93 24.556,29.124     24.556,29.939 25.31,29.939 26.19,29.795 26.198,29.939 27.173,29.939 27.173,29.029 27.173,28.93 27.173,24.999 27.729,24.999     27.729,28.93 27.729,29.029 27.729,29.939 28.706,29.939 28.714,29.795 29.595,29.939 30.349,29.939 30.349,29.124   " fill="#364f6b"/>
		<polygon points="21.23,20.623 22.322,20.623 22.322,19.857 21.23,19.496   " fill="#364f6b"/>
		<polygon points="22.931,20.623 24.023,20.623 24.023,20.42 22.931,20.059   " fill="#364f6b"/>
		<polygon points="8.921,21.223 8.695,21.223 8.435,20.143 8.261,20.186 8.513,21.223 8.452,21.223 8.191,20.143 8.02,20.186     8.271,21.223 7.958,21.223 7.958,20.145 7.78,20.145 7.78,21.223 7.604,21.223 7.604,21.893 2.021,21.893 2.021,23.775     3.273,23.775 3.273,30.625 16.225,30.625 16.225,23.775 17.477,23.775 17.477,21.893 8.921,21.893   " fill="#364f6b"/>
		<path d="M21.849,17.195l0.721,0.24h0.359v0.119l1.094,0.361v-0.48h0.496v-0.25h-0.326l-0.04-0.513h0.483    c-0.004-0.071-0.021-0.14-0.021-0.213c0-0.176,0.021-0.347,0.052-0.514h-0.57l-0.002-0.03l0.4-2.187h-1.117    c0,0-0.209,0.641-0.785,0.675c-0.573,0.034-0.791-0.675-0.791-0.675h-0.334h-0.375h-0.197l0.301,1.946l-0.02,0.271h-1.825v0.727    h0.437v4.14h0.355v-4.14h0.982l-0.035,0.513h-0.403v0.25h0.403l0.146-0.442L21.849,17.195z M23.6,14.981l-0.154,0.363    c-0.008-0.001-0.015-0.006-0.022-0.006c-0.114,0.001-0.205,0.125-0.203,0.277c0,0.06,0.019,0.112,0.043,0.156l-0.073,0.174h-1.215    l-0.05-0.141c0.035-0.049,0.059-0.117,0.059-0.192c0-0.151-0.092-0.273-0.207-0.273c-0.006,0-0.012,0.004-0.018,0.005    l-0.129-0.362L23.6,14.981L23.6,14.981z" fill="#364f6b"/>
	</g>
</g>
<g>
</g>
<g>
</g>
<g>
</g>
<g>
</g>
<g>
</g>
<g>
</g>
<g>
</g>
<g>
</g>
<g>
</g>
<g>
</g>
<g>
</g>
<g>
</g>
<g>
</g>
<g>
</g>
<g>
</g>
</svg>
