
<svg width="72px" height="86px" viewBox="28 98 72 86" version="1.1" xmlns="http://www.w3.org/2000/svg" xmlns:xlink="http://www.w3.org/1999/xlink">
    <!-- Generator: Sketch 42 (36781) - http://www.bohemiancoding.com/sketch -->
    <desc>Created with Sketch.</desc>
    <defs>
        <filter x="-50%" y="-50%" width="200%" height="200%" filterUnits="objectBoundingBox" id="filter-1">
            <feOffset dx="0" dy="2" in="SourceAlpha" result="shadowOffsetOuter1"></feOffset>
            <feGaussianBlur stdDeviation="2" in="shadowOffsetOuter1" result="shadowBlurOuter1"></feGaussianBlur>
            <feColorMatrix values="0 0 0 0 1   0 0 0 0 1   0 0 0 0 1  0 0 0 0.5 0" type="matrix" in="shadowBlurOuter1" result="shadowMatrixOuter1"></feColorMatrix>
            <feMerge>
                <feMergeNode in="shadowMatrixOuter1"></feMergeNode>
                <feMergeNode in="SourceGraphic"></feMergeNode>
            </feMerge>
        </filter>
    </defs>
    <g id="danone-logo" filter="url(#filter-1)" stroke="none" stroke-width="1" fill="none" fill-rule="evenodd" transform="translate(32.000000, 100.000000)">
        <g id="Group" fill-rule="nonzero" fill="#BABCBE">
            <path d="M14.7552766,15.4717979 L12.2605213,14.2984787 L13.8748723,17.6732234 L11.9667766,21.7819149 L14.6088191,20.3144362 L17.8358617,24.5687553 L17.2492021,19.2875745 L20.330617,17.6732234 L17.2492021,16.352617 L17.6894043,11.8033085 L14.7552766,15.4717979 L14.7552766,15.4717979 Z M24.2015745,55.9334681 C12.1667553,52.6782128 3.40793617,41.7038617 3.40793617,28.6401064 C3.40793617,13.0147979 16.0762979,0.346021277 31.7024362,0.346021277 C47.3289894,0.346021277 59.9961064,13.0147979 59.9961064,28.6401064 C59.9961064,36.1820426 57.0449681,43.0344255 52.2355213,48.1065 C52.2355213,48.1065 50.2656064,45.5515851 49.678117,44.6724255 C49.0906277,43.7916064 48.2114681,43.6820745 48.3579255,42.4705851 C48.5346702,41.0072553 49.678117,39.5356277 49.678117,39.5356277 L49.9714468,40.7089468 C49.9714468,40.7089468 58.2099894,32.0497021 57.3084255,26.1835213 C56.7201064,22.3685745 54.3734681,21.9283723 54.3734681,21.9283723 C54.3734681,21.9283723 54.9601277,18.4067553 49.5308298,15.7651277 C44.1015319,13.1243298 39.9932553,13.5645319 39.9932553,13.5645319 L42.3415532,15.3253404 C42.3415532,15.3253404 39.5165426,14.8208298 38.0855745,15.1784681 L36.9122553,15.4722128 L38.4340851,16.2065745 C38.4340851,16.2065745 35.3352447,16.3463936 33.243766,17.967383 C31.6107447,19.2332234 31.4829574,20.0219362 31.4829574,20.0219362 L32.6571064,20.0219362 C32.6571064,20.0219362 31.6294149,21.7827447 31.3365,23.5431383 C31.0431702,25.3039468 31.1713723,25.7810745 31.1713723,25.7810745 C31.1713723,25.7810745 31.1713723,26.6062979 29.6856383,27.7070106 C28.598617,28.5123191 27.5402234,28.6977766 27.2095532,29.1375638 C26.711266,29.8022234 28.2550851,30.880117 28.2550851,30.880117 C28.2550851,30.880117 28.1451383,31.6688298 27.4294468,32.549234 C27.1025106,32.9516809 28.2550851,33.6495319 28.6401064,33.8150745 L27.7049362,34.585117 C27.7049362,34.585117 27.3750957,34.9153723 27.9244149,35.2999787 C28.4753936,35.6854149 28.2546702,36.5110532 28.0351915,37.3910426 C27.814883,38.2718617 27.3750957,39.6476489 30.345734,39.9766596 C33.317617,40.3073298 33.4827447,40.8574787 33.7574043,41.2425 C34.0328936,41.6291809 35.7376915,46.4701596 34.8577021,47.2414468 C33.6478723,48.2990106 31.5211277,47.9861809 27.4290319,50.762234 C24.3480319,52.8520532 24.2015745,55.9334681 24.2015745,55.9334681 Z" id="Shape"></path>
            <path d="M33.6478723,24.6243511 C33.6478723,24.6243511 34.6373936,26.1105 35.0228298,26.3851596 C35.4078511,26.660234 35.5177979,27.0452553 35.2423085,27.1008511 C34.9668191,27.1552021 33.0404681,27.1008511 33.0404681,27.1008511 L33.1516596,26.7705957 C33.1516596,26.7705957 32.9865319,26.3308085 33.1516596,25.8901915 C33.3167872,25.4499894 33.7569894,25.2848617 33.7569894,25.2848617 L33.6478723,24.6243511 L33.6478723,24.6243511 Z M0.212425532,66.7904043 L4.48417021,66.7904043 C7.74357447,66.7904043 8.4177766,69.8747234 8.4177766,71.9101915 C8.4177766,74.2157553 7.59545745,77.5394681 4.40243617,77.5394681 L0.212010638,77.5394681 L0.212010638,66.7904043 L0.212425532,66.7904043 L0.212425532,66.7904043 Z M2.19312766,75.683234 L4.16055319,75.683234 C5.80394681,75.683234 6.35617021,73.8415213 6.35617021,72.0749043 C6.35617021,68.9009681 4.99490426,68.6470532 4.13275532,68.6470532 L2.19271277,68.6470532 L2.19271277,75.683234 L2.19312766,75.683234 L2.19312766,75.683234 Z M12.0348191,77.539883 L9.906,77.539883 L13.3558404,66.7908191 L15.6862979,66.7908191 L19.0958936,77.539883 L16.8994468,77.539883 L16.2791809,75.3243511 L12.7090213,75.3243511 L12.0348191,77.539883 L12.0348191,77.539883 Z M13.2479681,73.4677021 L15.7136809,73.4677021 L14.5138085,69.2150426 L14.4876702,69.2150426 L13.2479681,73.4677021 L13.2479681,73.4677021 Z M27.6895851,66.7904043 L29.5761064,66.7904043 L29.5761064,77.539883 L27.5543298,77.539883 L23.6070319,69.8747234 L23.5796489,69.8747234 L23.5796489,77.539883 L21.6935426,77.539883 L21.6935426,66.7904043 L23.8223617,66.7904043 L27.6622021,74.2763298 L27.6895851,74.2763298 L27.6895851,66.7904043 L27.6895851,66.7904043 Z M37.6134255,66.4211489 C39.0248936,66.4211489 42.7390213,67.0468085 42.7390213,72.1939787 C42.7390213,77.3403191 39.0253085,77.9676383 37.6134255,77.9676383 C36.2027872,77.9676383 32.4886596,77.3403191 32.4886596,72.1939787 C32.4890745,67.0468085 36.2027872,66.4211489 37.6134255,66.4211489 Z M37.6134255,76.0275957 C38.816617,76.0275957 40.5102128,75.2641915 40.5102128,72.1939787 C40.5102128,69.1245957 38.816617,68.3611915 37.6134255,68.3611915 C36.4110638,68.3611915 34.7166383,69.1245957 34.7166383,72.1939787 C34.7166383,75.2641915 36.4110638,76.0275957 37.6134255,76.0275957 Z M51.7513404,66.7904043 L53.6378617,66.7904043 L53.6378617,77.539883 L51.6169149,77.539883 L47.6692021,69.8747234 L47.6430638,69.8747234 L47.6430638,77.539883 L45.7557128,77.539883 L45.7557128,66.7904043 L47.8845319,66.7904043 L51.7239574,74.2763298 L51.7513404,74.2763298 L51.7513404,66.7904043 L51.7513404,66.7904043 Z M62.9347979,68.6914468 L59.1418404,68.6914468 L59.1418404,70.9517872 L62.5186596,70.9517872 L62.5186596,72.8544894 L59.1418404,72.8544894 L59.1418404,75.6388404 L63.1650638,75.6388404 L63.1650638,77.539883 L57.1611383,77.539883 L57.1611383,66.7904043 L62.9347979,66.7904043 L62.9347979,68.6914468 L62.9347979,68.6914468 Z" id="Shape"></path>
        </g>
    </g>
</svg>
