<?xml version="1.0" encoding="UTF-8"?>
<svg width="105px" height="35px" viewBox="0 0 105 35" version="1.1" xmlns="http://www.w3.org/2000/svg" xmlns:xlink="http://www.w3.org/1999/xlink">
    <!-- Generator: Sketch 42 (36781) - http://www.bohemiancoding.com/sketch -->
    <title>Group 2</title>
    <desc>Created with Sketch.</desc>
    <defs></defs>
    <g id="Page-1" stroke="none" stroke-width="1" fill="none" fill-rule="evenodd">
        <g id="Group-2" fill-rule="nonzero" fill="#BABCBE">
            <g id="google-logo">
                <g id="Group">
                    <path d="M45.0138889,18.3477778 C45.0138889,23.3138889 41.1288889,26.9733333 36.3611111,26.9733333 C31.5933333,26.9733333 27.7083333,23.3138889 27.7083333,18.3477778 C27.7083333,13.3466667 31.5933333,9.72222222 36.3611111,9.72222222 C41.1288889,9.72222222 45.0138889,13.3466667 45.0138889,18.3477778 Z M41.2261111,18.3477778 C41.2261111,15.2444444 38.9744444,13.1211111 36.3611111,13.1211111 C33.7477778,13.1211111 31.4961111,15.2444444 31.4961111,18.3477778 C31.4961111,21.42 33.7477778,23.5744444 36.3611111,23.5744444 C38.9744444,23.5744444 41.2261111,21.4161111 41.2261111,18.3477778 Z" id="Shape"></path>
                    <path d="M63.6805556,18.3477778 C63.6805556,23.3138889 59.7955556,26.9733333 55.0277778,26.9733333 C50.26,26.9733333 46.375,23.3138889 46.375,18.3477778 C46.375,13.3505556 50.26,9.72222222 55.0277778,9.72222222 C59.7955556,9.72222222 63.6805556,13.3466667 63.6805556,18.3477778 Z M59.8927778,18.3477778 C59.8927778,15.2444444 57.6411111,13.1211111 55.0277778,13.1211111 C52.4144444,13.1211111 50.1627778,15.2444444 50.1627778,18.3477778 C50.1627778,21.42 52.4144444,23.5744444 55.0277778,23.5744444 C57.6411111,23.5744444 59.8927778,21.4161111 59.8927778,18.3477778 Z" id="Shape"></path>
                    <path d="M81.5694444,10.2433333 L81.5694444,25.7288889 C81.5694444,32.0988889 77.8127778,34.7005556 73.3716667,34.7005556 C69.1911111,34.7005556 66.675,31.9044444 65.7261111,29.6177778 L69.0238889,28.245 C69.6111111,29.6488889 71.05,31.3055556 73.3677778,31.3055556 C76.2105556,31.3055556 77.9722222,29.5516667 77.9722222,26.25 L77.9722222,25.0094444 L77.84,25.0094444 C76.9922222,26.0555556 75.3588889,26.9694444 73.2977778,26.9694444 C68.985,26.9694444 65.0338889,23.2127778 65.0338889,18.3788889 C65.0338889,13.51 68.985,9.72222222 73.2977778,9.72222222 C75.355,9.72222222 76.9883333,10.6361111 77.84,11.6511111 L77.9722222,11.6511111 L77.9722222,10.2472222 L81.5694444,10.2472222 L81.5694444,10.2433333 Z M78.2405556,18.3788889 C78.2405556,15.3416667 76.2144444,13.1211111 73.6361111,13.1211111 C71.0227778,13.1211111 68.8333333,15.3416667 68.8333333,18.3788889 C68.8333333,21.385 71.0227778,23.5744444 73.6361111,23.5744444 C76.2144444,23.5744444 78.2405556,21.385 78.2405556,18.3788889 Z" id="Shape"></path>
                    <polygon id="Shape" points="87.5 1.16666667 87.5 26.4444444 83.8055556 26.4444444 83.8055556 1.16666667"></polygon>
                    <path d="M101.896667,21.1866667 L104.836667,23.1466667 C103.887778,24.5505556 101.601111,26.9694444 97.65,26.9694444 C92.75,26.9694444 89.0905556,23.1816667 89.0905556,18.3438889 C89.0905556,13.2144444 92.7811111,9.71833333 97.2261111,9.71833333 C101.702222,9.71833333 103.891667,13.2805556 104.607222,15.2055556 L105,16.1855556 L93.4694444,20.9611111 C94.3522222,22.6916667 95.725,23.5744444 97.65,23.5744444 C99.5788889,23.5744444 100.916667,22.6255556 101.896667,21.1866667 Z M92.8472222,18.0833333 L100.555,14.8827778 C100.131111,13.8055556 98.8555556,13.055 97.3544444,13.055 C95.4294444,13.055 92.75,14.7544444 92.8472222,18.0833333 L92.8472222,18.0833333 Z" id="Shape"></path>
                    <path d="M13.7238889,16.1038889 L13.7238889,12.4444444 L26.0555556,12.4444444 C26.1761111,13.0822222 26.2383333,13.8366667 26.2383333,14.6533333 C26.2383333,17.3988889 25.4877778,20.7938889 23.0688889,23.2127778 C20.7161111,25.6627778 17.71,26.9694444 13.7277778,26.9694444 C6.34666667,26.9694444 0.14,20.9572222 0.14,13.5761111 C0.14,6.195 6.34666667,0.182777778 13.7277778,0.182777778 C17.8111111,0.182777778 20.72,1.785 22.9055556,3.87333333 L20.3233333,6.45555556 C18.7561111,4.98555556 16.6327778,3.84222222 13.7238889,3.84222222 C8.33388889,3.84222222 4.11833333,8.18611111 4.11833333,13.5761111 C4.11833333,18.9661111 8.33388889,23.31 13.7238889,23.31 C17.22,23.31 19.2111111,21.9061111 20.4866667,20.6305556 C21.5211111,19.5961111 22.2016667,18.1183333 22.47,16.1 L13.7238889,16.1038889 L13.7238889,16.1038889 Z" id="Shape"></path>
                </g>
            </g>
        </g>
    </g>
</svg>