<?xml version="1.0" encoding="UTF-8"?>
<svg width="62px" height="50px" viewBox="0 0 62 50" version="1.1" xmlns="http://www.w3.org/2000/svg" xmlns:xlink="http://www.w3.org/1999/xlink">
    <!-- Generator: Sketch 42 (36781) - http://www.bohemiancoding.com/sketch -->
    <title>sanofi_logo</title>
    <desc>Created with Sketch.</desc>
    <defs></defs>
    <g id="Page-1" stroke="none" stroke-width="1" fill="none" fill-rule="evenodd">
        <g id="sanofi_logo" transform="translate(-1.000000, 0.000000)" fill="#BABCBE">
            <g id="svg2">
                <g id="g11" transform="translate(31.733871, 25.127473) scale(-1, 1) rotate(-180.000000) translate(-31.733871, -25.127473) translate(0.483871, 0.261882)">
                    <polygon id="path27" fill-rule="nonzero" points="60.4473723 0.548850806 62.1812433 0.548850806 62.1812433 12.5246573 60.4473723 12.5246573"></polygon>
                    <path d="M41.4151142,10.9520766 L40.5683401,10.8714315 L39.6812433,10.5891734 C35.8378293,8.86471102 36.427211,3.01860887 40.5683401,2.12143145 L41.4151142,2.04078629 L42.302211,2.12143145 C46.6247917,2.9675336 46.8915927,9.19737231 43.1489852,10.5891734 L42.302211,10.8714315 L41.4151142,10.9520766 Z M41.4151142,12.6053024 L42.1409207,12.6053024 L42.7457594,12.5246573 C49.5011358,10.7847379 48.9514046,1.32102823 42.019953,0.468205645 L40.8102755,0.468205645 C33.8842003,1.48769489 33.3472379,10.7746573 40.2054368,12.5246573 L40.8102755,12.6053024 L41.4151142,12.6053024 L41.4151142,12.6053024 Z" id="path31"></path>
                    <path d="M4.60059812,11.1133669 L4.15704973,11.1133669 L3.83446909,11.0327218 L3.47156586,10.8714315 L3.10866263,10.5891734 L2.94737231,10.3472379 L2.78608199,9.98433468 L2.70543683,9.66175403 L2.70543683,9.21820565 L2.78608199,8.97627016 L2.86672715,8.61336694 L3.10866263,8.33110887 L3.3909207,8.16981855 L4.15704973,7.8472379 L6.57640457,6.96014113 L7.10059812,6.71820565 L7.46350134,6.43594758 L7.90704973,5.91175403 L8.22963038,5.38756048 C9.89898522,0.644952957 3.01524866,-1.56808468 0.850598118,2.52465726 L0.608662634,3.25046371 L0.528017473,4.01659274 L2.18124328,4.01659274 L2.26188844,3.49239919 L2.42317876,3.04885081 L2.70543683,2.72627016 L2.94737231,2.36336694 L3.31027554,2.20207661 L3.63285618,2.04078629 L4.07640457,1.91981855 L4.96350134,1.91981855 L5.28608199,2.04078629 L5.72963038,2.20207661 L6.0925336,2.36336694 C6.98769489,3.40839382 7.11403898,4.61605511 5.81027554,5.38756048 L5.12479167,5.75046371 L4.15704973,5.99239919 L3.10866263,6.35530242 L2.3425336,6.79885081 L1.73769489,7.24239919 L1.29414651,7.72627016 L1.05221102,8.45207661 L0.93124328,9.21820565 L1.05221102,9.90368952 L1.21350134,10.5891734 L1.57640457,11.1940121 L1.97963038,11.6375605 L2.50382392,12.0811089 C4.03272177,13.114711 6.22963038,12.7981788 7.46350134,11.3149798 L7.90704973,10.7907863 L8.14898522,10.1053024 L8.22963038,9.37949597 L6.49575941,9.37949597 L6.41511425,9.82304435 C6.26188844,10.5085282 5.63218414,10.9876949 4.96350134,11.1133669 L4.60059812,11.1133669" id="path35"></path>
                    <polyline id="path39" points="51.6570497 12.5246573 57.302211 12.5246573 57.302211 10.8714315 52.1812433 10.8714315 52.1812433 7.04078629 57.302211 7.04078629 57.302211 5.38756048 52.1812433 5.38756048 52.1812433 0.548850806 50.4473723 0.548850806 50.4473723 11.3149798 50.5280175 11.8391734 50.8102755 12.161754 51.1731788 12.4440121 51.6570497 12.5246573"></polyline>
                    <polyline id="path43" points="24.9231788 9.74239919 24.9231788 0.548850806 23.1893078 0.548850806 23.1893078 11.395625 23.269953 11.9198185 23.552211 12.2423992 23.8747917 12.5246573 24.3989852 12.6053024 24.6812433 12.6053024 25.0038239 12.4440121 25.1651142 12.2423992 25.4473723 12.0004637 30.6489852 3.33110887 30.7296304 12.5246573 32.4635013 12.5246573 32.4635013 1.67788306 32.3828562 1.15368952 32.1409207 0.79078629 31.6973723 0.548850806 31.2538239 0.468205645 30.9312433 0.468205645 30.6489852 0.548850806 30.4070497 0.710141129 30.2054368 0.992399194 24.9231788 9.74239919"></polyline>
                    <path d="M15.286082,10.2665927 L13.552211,5.50852823 L17.1005981,5.50852823 L15.286082,10.2665927 Z M12.9473723,3.93594758 L11.7376949,0.548850806 L9.88285618,0.548850806 L14.1570497,11.8391734 L14.3183401,12.161754 L14.6005981,12.4440121 L14.9231788,12.5246573 L15.286082,12.6053024 L15.6489852,12.5246573 L15.9715659,12.4440121 L16.2538239,12.161754 L16.4151142,11.8391734 L20.6489852,0.548850806 L18.8344691,0.548850806 L17.6247917,3.93594758 L12.9473723,3.93594758 L12.9473723,3.93594758 Z" id="path47"></path>
                    <path d="M46.2135013,38.6940121 L45.2457594,39.9036895 L44.802211,40.4278831 L44.2780175,40.8714315 C42.0239852,42.816996 38.9836626,42.3223723 36.3747917,41.4762702 L34.3183401,40.8714315 L33.269953,40.5891734 C30.4319153,40.0112164 27.4534207,40.3257325 26.2941465,43.3714315 L26.1328562,44.1778831 L26.052211,44.9440121 L26.2135013,45.7101411 L26.4957594,46.5165927 C27.5750605,49.2067809 31.6637702,49.8868884 34.1973723,49.1778831 L35.4473723,48.9359476 L36.5764046,48.5730444 C40.0354099,47.4325874 42.7840659,45.0575874 44.7215659,42.0004637 L45.3264046,40.9520766 L46.2135013,38.6940121" id="path51" fill-rule="nonzero"></path>
                    <path d="M46.3747917,38.2504637 L46.536082,37.3230444 L46.8183401,36.2746573 C47.4729099,31.0764046 45.4917272,25.5999261 41.3344691,22.3230444 L40.1247917,21.3553024 L38.9151142,20.6698185 C34.3297648,18.0864852 28.4036895,18.1557056 23.8747917,20.8311089 L22.8264046,21.5165927 L21.7780175,22.3230444 L22.5844691,22.0407863 L23.4312433,21.879496 C27.5582594,21.2336626 31.0636358,22.4137702 33.5118884,25.8714315 L34.4796304,27.4440121 L35.2457594,28.9762702 C37.1678024,33.2813777 38.5750605,38.0300336 44.036082,38.4520766 L45.1651142,38.4520766 L46.3747917,38.2504637" id="path55"></path>
                    <path d="M25.9715659,23.5327218 L25.1651142,23.1698185 C18.8364852,21.5817809 15.770625,30.1980444 16.2538239,35.0649798 L16.3344691,35.911754 L16.9393078,35.145625 L17.6247917,34.4601411 C20.4722379,31.4809745 23.0723723,31.7040927 26.4151142,29.8633669 L26.7376949,29.5004637 L27.019953,29.1778831 C28.2282863,27.6489852 27.9648454,25.5508669 26.7376949,24.1375605 L26.2941465,23.8553024 L25.9715659,23.5327218" id="path59"></path>
                </g>
            </g>
        </g>
    </g>
</svg>