<?xml version="1.0" encoding="UTF-8"?>
<svg width="129px" height="49px" viewBox="0 0 129 49" version="1.1" xmlns="http://www.w3.org/2000/svg" xmlns:xlink="http://www.w3.org/1999/xlink">
    <!-- Generator: Sketch 42 (36781) - http://www.bohemiancoding.com/sketch -->
    <title>united-healthcare-logo1</title>
    <desc>Created with Sketch.</desc>
    <defs></defs>
    <g id="Page-1" stroke="none" stroke-width="1" fill="none" fill-rule="evenodd">
        <g id="united-healthcare-logo1" transform="translate(0.000000, -1.000000)" fill-rule="nonzero" fill="#BABCBE">
            <g id="Group">
                <g transform="translate(64.182033, 25.377988) scale(-1, 1) rotate(-180.000000) translate(-64.182033, -25.377988) translate(0.182033, 0.877988)">
                    <path d="M20.0886091,47.7838647 C19.1935722,47.2506055 17.5029466,46.3174015 16.375863,45.7174849 C14.1879946,44.5843089 13.6907518,43.78442 15.1493307,43.78442 L16.0112182,43.78442 L15.8454706,28.7198445 C15.7460221,16.3548943 15.613424,13.2553245 15.1824802,11.6222179 C13.955948,6.88954156 10.7404445,3.42335604 7.95588484,3.85662923 C7.22659539,3.95661537 7.25974491,4.02327277 8.35367908,4.55653208 C10.8730426,5.78969423 12.3979205,8.22268981 13.3261071,12.4221069 C13.8896489,14.9884173 13.955948,16.7881675 13.955948,29.7197057 C13.955948,41.8846836 13.8896489,44.1510357 13.4918547,44.0510496 C13.2266585,43.9843922 10.1106037,42.3846142 6.49730595,40.4515493 L0,36.9520351 L0.0994485604,23.4539087 C0.198897122,13.2886532 0.331495201,9.65582421 0.662990403,8.78927783 C1.06078464,7.75608793 6.46415642,2.12353648 7.06084779,2.12353648 C7.19344588,2.12353648 7.65753915,1.75692071 8.08848291,1.32364753 C11.3039864,-1.90923704 17.7018438,1.09034658 20.1549082,6.95619896 C22.1107299,11.5888892 22.5416737,17.0214684 22.5748233,35.7188728 C22.5748233,45.9507858 22.4753746,48.7837259 22.177029,48.7503973 C21.9449824,48.7503973 21.0167958,48.3171241 20.0886091,47.7838647 Z M20.2543568,32.0527152 C20.2543568,15.1550608 19.8565625,11.2889308 17.7018438,6.95619896 C16.1438163,3.82330053 13.4587052,1.75692071 11.0056407,1.82357812 L9.48076275,1.85690684 L10.640996,2.2235226 C12.0664253,2.6901245 14.9504336,5.52306457 15.9117697,7.38947215 C16.3095639,8.15603241 16.9394048,10.0890974 17.337199,11.6888753 C18.0001894,14.455158 18.0664885,15.6216627 18.1990866,30.3862798 L18.3316847,46.1174294 L19.2930207,46.1174294 L20.2543568,46.1174294 L20.2543568,32.0527152 Z M11.5691825,41.4847391 C11.9669768,41.2514382 12.0001263,38.8517713 11.8675282,28.0865991 C11.7017806,14.1551996 11.5028835,12.0888198 9.97800557,9.25587973 C9.08296852,7.55611569 7.0939973,5.78969423 6.09951171,5.78969423 C5.07187658,5.78969423 5.13817563,6.1229813 6.43100691,7.0895138 C7.65753915,7.98938888 8.41997811,9.38919456 9.2155666,12.1221485 C9.64651036,13.6219403 9.74595892,16.4882091 9.87855701,27.8866268 C10.0443046,40.4848779 10.1106037,41.7846976 10.6078464,41.7846976 C10.9061921,41.7846976 11.3371359,41.6513827 11.5691825,41.4847391 Z" id="Shape"></path>
                    <path d="M54.5916545,40.9214286 C54.0051021,40.5147231 53.9444241,38.6438775 54.5107508,38.1354957 C55.4815962,37.2407434 56.7760568,38.0338192 56.7760568,39.5182945 C56.7760568,41.0027697 55.7040816,41.7145043 54.5916545,40.9214286 Z" id="Shape"></path>
                    <path d="M85.1530613,41.104446 C83.7372449,41.0231049 83.676567,41.0027697 83.676567,40.5350583 C83.676567,40.148688 83.7776968,40.0266763 84.1417638,40.0266763 C84.4047011,40.0266763 84.7889941,39.9046648 85.0114795,39.7419825 C85.3553207,39.4776239 85.3957726,39.1522595 85.4564505,36.8340379 C85.4969024,34.4954811 85.4766764,34.2717931 85.1935132,34.6174927 C84.3440233,35.7155977 82.6248178,36.0816326 81.1685495,35.4715743 C78.9436954,34.5361516 77.5481049,31.0994898 78.0335276,27.7034985 C78.4784986,24.5108601 80.1774781,22.5383382 82.4630102,22.5383382 C83.5552114,22.5383382 84.5260568,22.965379 85.0519314,23.6771137 L85.4766764,24.2668367 L85.4969024,23.4737609 L85.4969024,22.6806851 L86.5688776,22.8230321 C87.1352041,22.8840379 88.0049198,22.9450437 88.4903425,22.9450437 C89.2589286,22.9450437 89.3398324,22.9857143 89.3398324,23.4330904 C89.3398324,23.7991254 89.1982508,23.9414723 88.7532799,24.0228134 C87.8026603,24.2261662 87.7217565,24.8565598 87.7217565,33.4787172 L87.7217565,41.2467931 L87.175656,41.2061225 C86.8520408,41.1857872 85.9418732,41.1247814 85.1530613,41.104446 Z M84.0204081,34.2921283 C85.0317056,33.458382 85.6182581,30.2657434 85.2946429,27.4391399 C85.0923833,25.608965 84.7485422,24.653207 84.06086,24.0228134 C83.2720481,23.2907434 82.6248178,23.2500729 81.8966837,23.8601312 C80.986516,24.6328717 80.5617711,26.70707 80.7033527,29.716691 C80.8044825,32.2992711 81.2090014,33.7024052 82.0180394,34.3531341 C82.5843659,34.8005102 83.4540816,34.7801749 84.0204081,34.2921283 Z" id="Shape"></path>
                    <path d="M63.7917277,18.9447909 C62.3961372,18.8634498 62.3152328,18.8431146 62.3152328,18.3957385 C62.3152328,18.0297035 62.456815,17.8873566 62.9422374,17.7856801 C64.1355689,17.5619921 64.1153422,17.622998 64.1355689,9.69223996 L64.1355689,2.43254604 L63.6096943,2.0258405 C62.8006562,1.37511164 62.4972672,1.45645275 62.7399784,2.24952855 C62.8411074,2.61556353 62.9220118,3.2662924 62.9220118,3.67299794 C62.9220118,4.36439736 62.861334,4.44573847 62.4163628,4.44573847 C61.9713926,4.44573847 61.9107148,4.36439736 61.9107148,3.75433905 C61.9107148,2.39187548 61.1623546,1.41578219 60.8185134,2.33086965 C60.7578356,2.51388716 60.6971578,4.62875596 60.6971578,7.04865391 C60.6971578,11.1157094 60.6567056,11.5224149 60.2926388,12.1324732 C59.7060864,13.0882312 58.4925293,13.5966131 56.7328721,13.5966131 C54.305758,13.5966131 52.8494898,12.5188434 52.6472303,10.5869921 C52.5663265,9.75324574 52.6270044,9.50922238 52.9910714,9.14318744 C53.5169462,8.61447027 54.305758,8.59413493 54.8316326,9.12285222 C55.3777328,9.67190462 55.3777328,11.0140329 54.8316326,11.5630854 C54.4473402,11.9494557 54.4473402,11.9494557 54.8923104,12.2748201 C55.1350216,12.4578375 55.7620262,12.5798492 56.3485786,12.5798492 C57.8655247,12.5798492 58.2902692,12.051132 58.4318515,10.0786102 L58.5127549,8.57379971 L57.0362611,8.00441197 C53.5978498,6.68261893 52,5.21847899 52,3.4493099 C52,1.53779385 53.1933309,0.378683072 55.1956994,0.378683072 C56.4901609,0.378683072 57.4610056,0.765053332 58.0273325,1.4971233 L58.4723037,2.04617578 L58.6543371,1.53779385 C59.0993073,0.378683072 60.939869,-0.0280224688 61.9916182,0.805723882 C62.3354594,1.07008248 62.5174928,1.13108831 62.4770406,0.948070822 C62.4365894,0.744718052 63.0029152,0.663376942 65.3086737,0.622706392 L68.180758,0.561700562 L68.180758,1.07008248 C68.180758,1.45645275 68.0391768,1.59879968 67.5942056,1.70047607 C67.2705899,1.7614819 66.9065231,1.94449939 66.7851675,2.08684633 C66.6435864,2.24952855 66.5424563,5.19814371 66.5222308,10.6683332 L66.461553,18.9854615 L65.8547739,19.0057968 C65.5311593,19.0057968 64.580539,18.9854615 63.7917277,18.9447909 Z M58.4723037,6.54027199 C58.4723037,5.40149648 57.9464291,3.12394546 57.5419101,2.51388716 C57.2182944,2.00550522 56.2879008,1.39544691 55.8429296,1.39544691 C55.721574,1.39544691 55.3979594,1.61913496 55.1350216,1.90382884 C54.7507292,2.26986382 54.6293736,2.61556353 54.6293736,3.32729823 C54.6293736,4.40506791 54.9529882,5.1168026 55.7822518,5.9098784 C56.2879008,6.39792505 57.9059769,7.27234196 58.3307215,7.29267724 C58.4116259,7.29267724 58.4723037,6.94697753 58.4723037,6.54027199 Z" id="Shape"></path>
                    <path d="M76.4764938,18.7275397 C75.0606778,18.6461986 75,18.6258634 75,18.158152 C75,17.7717817 75.10113,17.64977 75.4651968,17.64977 C75.707908,17.64977 76.1326526,17.5074231 76.3753649,17.3244057 L76.820335,17.0193765 L76.820335,9.6986768 C76.820335,5.24525112 76.7394317,2.21529485 76.6180761,1.9916068 C76.516946,1.78825403 76.1528793,1.56456599 75.809038,1.48322488 C75.3438412,1.38154849 75.2022601,1.23920156 75.2022601,0.852831291 L75.2022601,0.364784651 L78.0338921,0.364784651 L80.8655252,0.364784651 L80.8655252,0.852831291 C80.8655252,1.23920156 80.7239429,1.38154849 80.2789728,1.48322488 C79.2474491,1.70691292 79.2069969,1.86959514 79.2879014,5.89597998 C79.3283525,9.00727738 79.409257,9.71901202 79.712646,10.2883998 C80.7239429,12.1592453 82.2206634,12.647292 83.0297015,11.40684 C83.353316,10.9187934 83.3937682,10.2070588 83.454446,5.61128611 L83.5151238,0.364784651 L85.4365889,0.364784651 C87.3378284,0.364784651 87.3378284,0.364784651 87.3378284,0.873166572 C87.3378284,1.15786045 87.2164728,1.38154849 87.054665,1.38154849 C86.9130827,1.38154849 86.5490159,1.56456599 86.2456269,1.80858931 L85.7197523,2.21529485 L85.7197523,6.62804995 C85.7197523,10.5324231 85.6793001,11.1221462 85.3354589,11.7525397 C84.7691331,12.8303094 83.8387395,13.3793619 82.544278,13.3793619 C81.2902698,13.3793619 80.521684,13.0336622 79.7733238,12.1592453 L79.2474491,11.5288517 L79.2069969,15.148531 L79.1463191,18.7682103 L78.5395411,18.7885456 C78.2159255,18.7885456 77.2653063,18.7682103 76.4764938,18.7275397 Z" id="Shape"></path>
                    <path d="M27.2461735,40.4537172 C27.2461735,40.1283528 27.3675292,39.7623178 27.5293367,39.6403061 C27.7720481,39.4369534 27.8327259,38.1761662 27.8934038,32.726312 L27.9540816,26.0766764 L28.56086,24.8565598 C29.0867347,23.8397959 29.329446,23.5754373 30.3205175,23.0670554 C32.5453717,21.9282799 35.7208455,22.1723032 37.2175656,23.6161079 C38.4513484,24.7752187 38.5727041,25.6293003 38.5727041,32.5229592 C38.5727041,35.8782799 38.6536079,38.8065597 38.7749635,39.0912537 C38.8963192,39.4369534 39.2199344,39.6809766 39.7862609,39.8436589 C40.4334913,40.0470117 40.5952989,40.1893586 40.5952989,40.5757289 C40.5952989,41.0434403 40.5952989,41.0434403 37.9659257,41.0434403 L35.3365525,41.0434403 L35.3365525,40.5553936 C35.3365525,40.1690234 35.4781341,40.0470117 36.0444606,39.9453352 C37.3793732,39.6809766 37.3793732,39.6403061 37.3186954,32.1569242 L37.2580175,25.4462828 L36.6714651,24.6938775 C35.2556487,22.8230321 32.6465014,22.9043732 31.2104592,24.8362245 C30.8059402,25.385277 30.7857143,25.6699709 30.7250365,32.3399417 C30.6845846,37.281414 30.7250365,39.3352769 30.90707,39.5386297 C31.0284257,39.6809766 31.4329446,39.8639942 31.8172376,39.9453352 C32.3633382,40.0470117 32.5049198,40.1690234 32.5049198,40.5553936 L32.5049198,41.0434403 L29.8755467,41.0434403 L27.2461735,41.0434403 L27.2461735,40.4537172 Z" id="Shape"></path>
                    <path d="M27,18.1784873 C27,17.8124523 27.1618076,17.6701054 27.6472303,17.5277585 C28.7798833,17.202394 28.8203353,16.9990412 28.8203353,9.51565933 C28.8203353,2.03227736 28.7798833,1.82892459 27.6472303,1.50356016 C27.1618076,1.36121322 27,1.21886628 27,0.852831291 L27,0.364784651 L30.1350219,0.364784651 L33.2700437,0.364784651 L33.2700437,0.852831291 C33.2700437,1.23920156 33.1284621,1.38154849 32.6632653,1.48322488 C31.4901603,1.74758348 31.4497084,1.86959514 31.4497084,5.87564471 L31.4497084,9.51565933 L34.1802114,9.51565933 L36.9107143,9.51565933 L36.9107143,5.93665054 C36.9107143,3.98446395 36.8298105,2.21529485 36.7084548,2.01194208 C36.6073251,1.80858931 36.2028062,1.56456599 35.7982872,1.50356016 C35.2117347,1.38154849 35.090379,1.27987211 35.090379,0.873166572 L35.090379,0.364784651 L38.3265306,0.364784651 L41.5626822,0.364784651 L41.5626822,0.852831291 C41.5626822,1.21886628 41.4211006,1.36121322 40.9154519,1.4628896 C39.7018951,1.70691292 39.742347,1.38154849 39.742347,9.51565933 C39.742347,17.64977 39.7018951,17.3244057 40.9154519,17.5684289 C41.4211006,17.6701054 41.5626822,17.8124523 41.5626822,18.1784873 L41.5626822,18.6665339 L38.3265306,18.6665339 L35.090379,18.6665339 L35.090379,18.158152 C35.090379,17.7514465 35.2117347,17.64977 35.7982872,17.5277585 C36.2028062,17.4667526 36.6073251,17.2227292 36.7084548,17.0193765 C36.8298105,16.8160237 36.9107143,15.290878 36.9107143,13.60305 L36.9107143,10.5324231 L34.1802114,10.5324231 L31.4497084,10.5324231 L31.4497084,13.6437205 C31.4497084,17.0600471 31.5103863,17.2430645 32.7239432,17.5480937 C33.1284621,17.64977 33.2700437,17.8124523 33.2700437,18.1784873 L33.2700437,18.6665339 L30.1350219,18.6665339 L27,18.6665339 L27,18.1784873 Z" id="Shape"></path>
                    <path d="M61.6302843,39.9656706 C61.6302843,39.6809766 61.4482508,38.8675656 61.2257653,38.1354957 C60.8010205,36.773032 60.1133382,35.9392857 59.0615889,35.5325802 C58.7379738,35.4105685 58.5963921,35.1868805 58.5963921,34.8411808 C58.5963921,34.3734694 58.6772959,34.3327988 59.40543,34.3327988 L60.2144679,34.3327988 L60.2144679,29.3709913 C60.2144679,24.5718659 60.2346938,24.4091837 60.6796648,23.7381195 C60.9223761,23.3720845 61.367347,22.9450437 61.6302843,22.8026968 C62.3584184,22.4366618 63.8349125,22.4773324 64.6641764,22.9043732 C65.5338921,23.331414 66.0597668,24.6735423 66.0799927,26.4630467 C66.0799927,27.5611516 66.0597668,27.6221574 65.574344,27.6221574 C65.0889213,27.6221574 65.0686954,27.5611516 65.0686954,26.5037172 C65.0686954,24.4091837 63.9967201,23.0060496 63.0461006,23.8601312 C62.6820335,24.1854956 62.6415816,24.5311953 62.6011297,29.2693149 L62.5404519,34.3327988 L64.1180759,34.3327988 L65.6754738,34.3327988 L65.6754738,34.9428571 L65.6754738,35.5529154 L64.1180759,35.5529154 L62.5404519,35.5529154 L62.5404519,37.9321429 C62.5404519,40.2706997 62.5202259,40.3317055 62.0954811,40.3927114 C61.7111881,40.4537172 61.6302843,40.3723761 61.6302843,39.9656706 Z" id="Shape"></path>
                    <path d="M70.9327621,17.2227293 C70.6495986,15.2095368 69.719205,13.8064027 68.3640668,13.3183561 C68.1415812,13.237015 68,12.9726564 68,12.6676273 C68,12.1999159 68.0809034,12.1592453 68.8090369,12.1592453 L69.618075,12.1592453 L69.618075,7.19743771 C69.618075,2.39831234 69.6383016,2.23563013 70.0832718,1.56456599 C70.6495986,0.710484362 71.2968288,0.364784651 72.4092559,0.364784651 C74.431851,0.364784651 75.2813412,1.36121322 75.4431479,3.98446395 L75.544278,5.44860389 L74.9981778,5.44860389 C74.4925288,5.44860389 74.4723032,5.38759806 74.4520765,4.39116949 C74.4520765,2.94736483 74.0880097,1.97127153 73.420554,1.60523654 C72.9351305,1.32054266 72.8542271,1.32054266 72.4699337,1.66624237 C72.0654146,2.03227736 72.0451891,2.2559654 72.0451891,7.1160966 L72.0451891,12.1592453 L73.5621351,12.1592453 L75.0790812,12.1592453 L75.0790812,12.7693036 L75.0790812,13.3793619 L73.5621351,13.3793619 L72.0654146,13.3793619 L72.0047368,15.7789245 C71.944059,18.0361404 71.9238335,18.158152 71.5193145,18.2191578 C71.135021,18.2801636 71.0541176,18.158152 70.9327621,17.2227293 Z" id="Shape"></path>
                    <path d="M41.7684038,35.6139212 C40.0289724,35.5325802 39.9885205,35.5325802 39.9885205,35.0445335 C39.9885205,34.637828 40.0896502,34.5361516 40.4941691,34.5361516 C40.7773324,34.5361516 41.1818513,34.3531341 41.4043367,34.129446 C41.7886297,33.7430758 41.8088557,33.458382 41.8088557,29.2896501 C41.8088557,24.4091837 41.7481778,24.1041545 40.5952989,23.8601312 C40.1301021,23.7584548 39.9885205,23.6161079 39.9885205,23.2297376 L39.9885205,22.741691 L42.9212828,22.741691 L45.8540452,22.741691 L45.8540452,23.2297376 C45.8540452,23.6161079 45.7124635,23.7584548 45.2472668,23.8601312 C44.1146137,24.1041545 43.9730321,24.5922012 44.0741618,28.1712099 C44.1348397,31.1401603 44.1955175,31.4655248 44.6809402,32.5432945 C45.0450073,33.3160349 45.4495262,33.8447522 45.8944971,34.129446 C46.7642128,34.6581632 47.1889578,34.637828 47.7755102,34.0277697 L48.2811589,33.5397231 L48.2811589,28.1305394 L48.2811589,22.741691 L50.3037536,22.741691 C52.3061224,22.741691 52.3263484,22.741691 52.3263484,23.2297376 C52.3263484,23.6161079 52.1847668,23.7584548 51.7397959,23.8601312 C51.4161808,23.921137 51.0521137,24.1041545 50.9307581,24.2261662 C50.8296283,24.3685131 50.7082726,26.4427114 50.6678207,29.1676385 C50.6071429,34.3327988 50.5464651,34.5564869 49.2317784,35.3495626 C48.4631924,35.8376094 46.7035349,35.8986152 45.8944971,35.4715743 C45.2877187,35.1462099 44.3370991,34.1904519 44.1752916,33.7227405 C44.1146137,33.5600583 44.0539359,33.9464286 44.0539359,34.5971574 C44.0337099,35.4105685 43.9528062,35.7359329 43.7909986,35.7155977 C43.649417,35.6952623 42.7392492,35.6342566 41.7684038,35.6139212 Z" id="Shape"></path>
                    <path d="M52.7308673,35.2885569 C52.7308673,34.9021866 52.8926749,34.7801749 53.4994533,34.6174927 L54.2478134,34.4344752 L54.3084913,29.4726676 C54.3287172,26.1376822 54.2882653,24.4295189 54.1264578,24.2465015 C54.025328,24.1041545 53.6410349,23.921137 53.3174198,23.8601312 C52.872449,23.7584548 52.7308673,23.6161079 52.7308673,23.2297376 L52.7308673,22.741691 L55.6636297,22.741691 C58.5963921,22.741691 58.5963921,22.741691 58.5963921,23.2094023 C58.5963921,23.555102 58.4345846,23.7177843 57.9491618,23.8601312 C56.8367347,24.2058309 56.7760568,24.5311953 56.7760568,30.4284257 L56.7760568,35.7562682 L54.7534621,35.7562682 C52.7713192,35.7562682 52.7308673,35.7562682 52.7308673,35.2885569 Z" id="Shape"></path>
                    <path d="M70.0240525,35.3902332 C68.0823616,34.4548105 67.0508382,32.5636297 66.9294825,29.7370262 C66.8081268,27.1341108 67.3340014,25.5072886 68.8104956,24.0431487 C69.9633746,22.8840379 70.7926384,22.5383382 72.4713921,22.5383382 C74.4535349,22.5383382 76.0716108,23.9008017 76.6379373,26.0563411 C76.8604227,26.8900875 76.8401968,27.0527697 76.5974854,27.2154519 C76.0513848,27.5611516 75.8693513,27.4391399 75.62664,26.564723 C75.1209913,24.6735423 74.1299198,23.7177843 72.6534257,23.6771137 C71.9050656,23.6567784 71.6623543,23.7584548 71.0555759,24.3481778 C70.2667638,25.1209184 69.7813411,26.3206997 69.5790816,27.9678571 L69.4577259,29.0456268 L73.0377187,29.0456268 C76.1322886,29.0456268 76.6177114,29.0862974 76.739067,29.3709913 C76.9413265,29.8997085 76.2536443,32.6653061 75.6873178,33.6413994 C74.8985059,34.9835277 73.8063046,35.6342566 72.1680029,35.7155977 C71.1769314,35.7562682 70.6308309,35.6749271 70.0240525,35.3902332 Z M72.9972668,34.3938046 C73.5838192,33.7024052 73.8265306,33.0110058 73.9681122,31.6485423 L74.0894679,30.2657434 L71.8039359,30.2657434 L69.5184038,30.2657434 L69.5184038,30.8758017 C69.5184038,32.0959183 69.9633746,33.5193877 70.5297011,34.129446 C70.974672,34.6174927 71.2578352,34.7395043 71.8848397,34.7395043 C72.4107143,34.7395043 72.7950073,34.6174927 72.9972668,34.3938046 Z" id="Shape"></path>
                    <path d="M45.0338921,13.2166797 C44.0428207,12.7489684 43.0112973,11.5898576 42.4247449,10.3494056 C42.0809038,9.57666508 42,9.00727734 42,7.17710243 C42,5.04189835 42.0404519,4.85888086 42.6674562,3.57775841 C43.7596575,1.36121322 45.2361516,0.364784651 47.5014578,0.364784651 C48.8768222,0.364784651 50.1308309,1.03584879 50.9196429,2.21529485 C51.627551,3.29306454 51.9713921,4.81821031 51.5668732,5.08256891 C51.0612245,5.40793334 50.879191,5.22491585 50.6162536,4.208152 C50.2724125,2.886359 49.3824708,1.86959514 48.3509475,1.58490126 C47.3396502,1.30020739 46.8340014,1.4628896 45.9845116,2.2559654 C45.2968294,2.92702954 44.8720846,4.04546978 44.6293732,5.91631526 L44.5080175,6.87207328 L48.0677843,6.87207328 C51.0005467,6.87207328 51.647777,6.93307911 51.7286808,7.17710243 C51.9511662,7.74649019 51.3848397,10.2477293 50.7780613,11.3051636 C49.9285714,12.8099742 48.8768222,13.460703 47.1778425,13.5420441 C46.1867711,13.5827147 45.6204446,13.5013736 45.0338921,13.2166797 Z M48.1082362,12.1185747 C48.6341108,11.549187 48.9779519,10.3290704 48.9779519,9.06828324 L48.9779519,8.09218989 L46.7328717,8.09218989 L44.5080175,8.09218989 L44.6495991,9.27163593 C44.8114067,10.7357759 45.2563776,11.8745514 45.8024781,12.2609216 C46.4699344,12.728633 47.6228134,12.6472919 48.1082362,12.1185747 Z" id="Shape"></path>
                    <path d="M91.7625685,13.3793619 C89.5174889,12.4642745 88.0207684,9.92236484 88.0005428,6.95341439 C87.9600906,3.19138815 90.1849447,0.364784651 93.1783845,0.364784651 C95.5245953,0.364784651 97.0010891,1.76791876 97.3044781,4.24882255 C97.4258336,5.20458057 97.4056081,5.24525112 96.9201857,5.24525112 C96.4549889,5.24525112 96.3740844,5.14357474 96.2729544,4.35049894 C96.192051,3.86245229 95.8684365,3.06937649 95.5448208,2.62200039 C94.2908115,0.893501852 92.3491209,1.09685462 91.3175973,3.11004705 C90.8321749,4.06580506 90.7917226,4.30982838 90.7917226,6.97374966 C90.7917226,9.69867681 90.8119493,9.86135894 91.3580495,10.8984581 C92.2479909,12.5862861 93.5829035,13.1760091 94.9380428,12.4642745 C95.6661764,12.0779042 96.1515988,11.3254989 95.5650464,11.4881811 C94.9380428,11.6508634 94.5335238,11.0204698 94.5335238,9.82068849 C94.5335238,8.80392458 94.573975,8.6819129 95.1403018,8.39721909 C95.9291143,7.99051351 96.090921,8.01084879 96.6572478,8.60057178 C97.2842525,9.21063008 97.3247047,10.6340995 96.7786034,11.8948866 C96.0504699,13.4810383 93.7447114,14.1521025 91.7625685,13.3793619 Z" id="Shape"></path>
                    <path d="M100.943461,13.3996972 C99.7501293,12.9116506 99.2242547,12.4642745 98.8804135,11.6101928 C98.4556689,10.6137643 98.5365723,9.78001793 99.1028991,9.21063008 C99.6894515,8.60057178 100.215326,8.55990122 100.842331,9.08861851 C101.550239,9.65800625 101.530013,11.2034872 100.822105,11.7525397 L100.316456,12.13891 L101.064816,12.4439392 C102.177243,12.9116506 103.127863,12.8506447 103.795319,12.2812569 C104.300967,11.8338809 104.361645,11.6508634 104.422323,10.1867234 L104.503228,8.58023655 L102.601988,7.8278313 C101.570464,7.40079048 100.296231,6.75006162 99.770356,6.36369136 C96.7971417,4.16748145 97.7477609,0.364784651 101.287302,0.364784651 C102.64244,0.364784651 103.411026,0.710484362 104.139161,1.62557182 C104.624583,2.2559654 104.665035,2.2559654 104.665035,1.82892459 C104.665035,1.56456599 104.88752,1.13752517 105.170683,0.873166572 C105.554977,0.466461031 105.858366,0.364784651 106.687629,0.364784651 C108.28548,0.364784651 108.912483,1.25953683 108.912483,3.53708786 C108.912483,4.35049894 108.872032,4.43184005 108.406835,4.43184005 C107.961864,4.43184005 107.901186,4.35049894 107.901186,3.6794348 C107.901186,2.520324 107.698927,1.97127153 107.314634,2.03227736 C107.031471,2.09328319 106.970793,2.68300622 106.889889,6.77039689 C106.768534,12.1592453 106.707856,12.4032686 105.231361,13.1353386 C103.896448,13.8064028 102.217696,13.9080791 100.943461,13.3996972 Z M104.402097,5.67229194 C104.24029,3.25239398 103.471704,1.80858931 102.197469,1.48322488 C101.772724,1.3815485 101.530013,1.4628896 101.105269,1.88993042 C100.619845,2.37797707 100.579393,2.54065928 100.660297,3.63876425 C100.741201,4.67586337 100.842331,4.94022197 101.449109,5.57061555 C102.136791,6.30268552 103.714415,7.25844354 104.24029,7.27877882 C104.462775,7.27877882 104.503228,6.97374966 104.402097,5.67229194 Z" id="Shape"></path>
                    <path d="M114.461006,13.2166797 C113.995809,12.9726564 113.571064,12.4846097 113.206997,11.772875 L112.64067,10.7154406 L112.64067,12.0779042 L112.64067,13.460703 L111.588921,13.3183561 C111.002368,13.2573502 110.173105,13.1963445 109.768586,13.1963445 C109.080903,13.1963445 109,13.1353386 109,12.6879625 C109,12.3219276 109.10113,12.1795805 109.364067,12.1795805 C109.586552,12.1795805 109.910168,11.9965631 110.132653,11.7525397 C110.476494,11.3661694 110.516946,10.9187934 110.577624,6.79073217 L110.638302,2.25596541 L110.092201,1.82892459 C109.788811,1.60523654 109.424745,1.40188377 109.262937,1.40188377 C109.080903,1.40188377 109,1.23920156 109.040452,0.954507682 C109.10113,0.486796311 109.161808,0.486796311 112.09457,0.425790481 L115.067784,0.364784651 L115.067784,0.852831303 C115.067784,1.23920156 114.926203,1.36121322 114.218294,1.52389544 C113.065416,1.76791876 112.84293,2.25596541 112.84293,4.55385171 C112.863156,9.16995961 113.995809,12.6066214 115.512755,12.5862862 L115.977952,12.5862862 L115.532981,12.2202511 C114.966654,11.772875 114.784621,11.0001345 115.067784,10.2477293 C115.472303,9.16995961 116.402697,9.00727736 117.070153,9.86135903 C117.879191,10.8781228 117.494898,12.7489683 116.382471,13.2776856 C115.532981,13.6843911 115.310495,13.6843911 114.461006,13.2166797 Z" id="Shape"></path>
                    <path d="M121.498495,13.3587823 C119.698385,12.6470476 118.545507,11.0405607 118.140988,8.62066274 C117.675791,6.0380826 118.383699,3.3944966 119.941096,1.84901554 C121.114202,0.689904762 122.206403,0.262863941 123.885157,0.384875601 C125.968429,0.506887261 127.16176,1.56432166 127.748312,3.82153742 C127.991025,4.75696015 127.991025,4.83830126 127.606731,5.04165403 C127.121309,5.30601263 127.202212,5.40768902 126.635885,3.84187269 C126.049333,2.2353858 125.220069,1.50331583 123.905382,1.48298056 C122.206403,1.44231 121.053525,2.98779105 120.831039,5.59070651 L120.709683,7.05484645 L124.309901,7.05484645 L127.91012,7.05484645 L127.788764,8.41731005 C127.626957,10.0644675 126.696563,12.1183304 125.826847,12.748724 C125.098714,13.2774412 123.723349,13.7654878 123.015441,13.7654878 C122.732277,13.7451526 122.044596,13.562135 121.498495,13.3587823 Z M123.986287,12.4233596 C124.613291,11.9759835 124.977358,11.0405607 125.139166,9.41373862 L125.280747,8.0716103 L122.995215,8.0716103 L120.709683,8.0716103 L120.810812,9.35273272 C120.932168,10.8982138 121.437817,12.0573246 122.165952,12.4436949 C122.87386,12.8300651 123.41996,12.8097298 123.986287,12.4233596 Z" id="Shape"></path>
                </g>
            </g>
        </g>
    </g>
</svg>