<?xml version="1.0" encoding="UTF-8"?>
<svg width="93px" height="48px" viewBox="0 0 93 48" version="1.1" xmlns="http://www.w3.org/2000/svg" xmlns:xlink="http://www.w3.org/1999/xlink">
    <!-- Generator: Sketch 42 (36781) - http://www.bohemiancoding.com/sketch -->
    <title>roche-logo</title>
    <desc>Created with Sketch.</desc>
    <defs></defs>
    <g id="Page-1" stroke="none" stroke-width="1" fill="none" fill-rule="evenodd">
        <g id="roche-logo" fill-rule="nonzero" fill="#BABCBE">
            <g id="layer1" transform="translate(0.013485, 0.095062)">
                <g id="g20076" transform="translate(0.093316, 0.086811)">
                    <path d="M62.5464078,18.3708169 C61.9718113,17.9494909 61.059177,17.6798494 60.1803777,17.6966909 C59.2170559,17.7135468 58.3044346,18.0168987 57.6622201,18.5224857 L57.6622201,12.4891351 L54.670867,12.4891351 L54.670867,32.1733818 L57.6622201,32.1733818 L57.6622201,21.8930857 C57.6622201,21.1852636 58.2706256,20.3931649 59.3860618,20.342613 C59.8761619,20.3257584 60.5690769,20.5448481 60.9239931,21.0672909 C61.2957878,21.6065753 61.2788833,22.3481078 61.2788833,23.1402052 L61.2619788,32.1733818 L64.253332,32.1733818 L64.253332,23.0390883 C64.253332,20.342613 63.9153332,19.3819909 62.5464078,18.3708169" id="path19828"></path>
                    <path d="M38.2099996,25.1288442 C38.2099996,27.0500883 38.1423895,27.5893727 38.1255006,27.7579117 C38.0240984,28.8364922 37.5677851,29.9656403 36.3171625,29.9656403 C35.0834418,29.9656403 34.5764346,28.7522299 34.5257276,27.7073455 C34.5088387,27.7073455 34.4412286,27.0500883 34.4412286,25.1288442 C34.4412286,23.2076117 34.5088387,22.3986727 34.5257276,22.3986727 C34.5257276,21.3032221 35.100345,20.2246403 36.3171625,20.2246403 C37.5508832,20.2246403 38.1085974,21.3032221 38.1255006,22.3818182 C38.1255006,22.3986727 38.2099996,23.2076117 38.2099996,25.1288442 Z M41.099948,22.8031429 C40.6774398,18.606761 38.2775955,17.6966909 36.3171625,17.6966909 C33.5286151,17.6966909 31.8385811,19.4662532 31.534377,22.8031429 C31.500585,23.0727844 31.4667799,23.5615169 31.449878,25.1288442 C31.4329748,26.2748468 31.5174882,27.218613 31.534377,27.4545584 C31.7202913,30.5723442 33.5117119,32.4767338 36.3171625,32.4767338 C39.1226131,32.4767338 40.914048,30.5386481 41.1168512,27.4545584 C41.13374,27.2354688 41.184447,26.2748468 41.184447,25.1288442 C41.184447,24.6064013 41.1506419,23.2076117 41.099948,22.8031429 L41.099948,22.8031429 Z" id="path19830"></path>
                    <path d="M69.2558251,23.3592818 C69.2727296,22.7020247 69.2727296,22.5671974 69.2896341,22.3818182 C69.3741305,21.2021052 69.8980396,20.2246403 71.1148506,20.2246403 C72.551381,20.2077857 72.8893927,21.6065753 72.9400802,22.3818182 C72.9738892,22.8031429 72.9907937,23.0727844 72.9907937,23.3592818 L69.2558251,23.3592818 Z M72.9569847,27.3028753 C72.9569847,27.3028753 72.9569847,27.5219662 72.9231757,27.7916078 C72.8386793,28.4825883 72.5682855,29.9656403 71.1148506,29.9656403 C69.8642306,29.9656403 69.391035,28.8364922 69.3065386,27.7242013 C69.2896341,27.4039935 69.2389206,27.0500883 69.2389206,25.8366662 L75.9145419,25.8366662 C75.9145419,25.8366662 75.9145419,24.8423468 75.8976374,24.2524974 C75.8976374,24.0165519 75.8807459,23.6289377 75.8300324,22.8031429 C75.7286315,21.5391675 75.2554229,20.1572338 74.528712,19.280874 C73.7006001,18.2359883 72.517572,17.6966909 71.1148506,17.6966909 C68.4108087,17.6966909 66.7207891,19.4493974 66.3996818,22.8031429 C66.3658728,23.1064948 66.3151724,23.5278195 66.3151724,25.1288442 C66.3151724,26.2748468 66.3827773,27.2354688 66.3996818,27.4545584 C66.5686747,30.5217922 68.3939042,32.4767338 71.1148506,32.4767338 C73.8189055,32.4767338 75.6272306,30.5723442 75.8300324,27.3028753 L72.9569847,27.3028753 L72.9569847,27.3028753 Z" id="path19832"></path>
                    <path d="M21.985721,2.44478442 L70.6247505,2.44478442 L89.215071,24.1513792 L70.6247505,45.5546221 L21.985721,45.5546221 L3.31090411,24.0839584 L21.985721,2.44478442 Z M71.7908611,0.0348077922 L20.8026942,0.0348077922 L0.116750409,23.9996974 L20.8195974,47.8129169 L71.7908611,47.8129169 L92.409226,24.0839584 L71.7908611,0.0348077922 L71.7908611,0.0348077922 Z" id="path19834"></path>
                    <path d="M22.5941291,15.1687545 L23.9968479,15.1687545 C25.5347727,15.1687545 26.3797904,15.9776948 26.4135955,17.4270494 C26.4135955,17.5450221 26.4304973,17.6629948 26.4304973,17.8820844 C26.4304973,18.151726 26.4304973,18.2359883 26.4135955,18.353961 C26.3290964,19.2134662 25.940392,20.7133727 24.1489571,20.7133727 L22.5941291,20.7133727 L22.5941291,15.1687545 Z M29.675345,30.9431169 L29.3711409,26.1231766 C29.235948,23.966 28.6782325,22.6851701 27.545914,22.0279 C28.3571252,21.5391675 29.404946,20.342613 29.3880428,17.8315182 C29.3880428,14.0227519 27.0051017,12.6745156 24.1996511,12.6408182 L19.6365837,12.6408182 L19.6365837,32.1733818 L22.5772272,32.1733818 L22.5941291,23.2413221 L24.2334562,23.2413221 C25.1798747,23.2413221 26.2445974,24.0671169 26.4135955,26.3928182 L26.7177995,30.9599727 C26.7516046,31.6172299 26.8699087,32.1733818 26.8699087,32.1733818 L29.8274542,32.1733818 C29.8274542,32.1733818 29.6922469,31.6340844 29.675345,30.9431169 L29.675345,30.9431169 Z" id="path19836"></path>
                    <path d="M49.8373927,27.1680481 C49.8373927,27.3871377 49.8204883,27.5725312 49.8035838,27.7073455 C49.7190873,28.8027961 49.3472926,29.9656403 47.9952587,29.9656403 C46.7615432,29.9656403 46.2714431,28.7016779 46.1700421,27.7747662 C46.1193287,27.218613 46.1362331,26.7804338 46.1193287,25.1288442 C46.1024242,23.2076117 46.1700421,22.7020247 46.2038251,22.3986727 C46.305226,21.1684078 46.7784477,20.2246403 47.9952587,20.2246403 C49.2627832,20.2077857 49.7866923,21.3032221 49.8035838,22.3818182 C49.8035838,22.3986727 49.8373927,22.6514597 49.8542972,23.2244675 L52.8118414,23.2244675 C52.8118414,23.0222325 52.7949369,22.8536948 52.7949369,22.7694325 C52.4569382,18.6910234 49.9556982,17.6966909 47.9952587,17.6966909 C45.2067152,17.6966909 43.5166812,19.4662532 43.2124771,22.8031429 C43.1786864,23.0727844 43.1448813,23.5615169 43.1279781,25.1288442 C43.1110762,26.2748468 43.1955752,27.218613 43.2124771,27.4545584 C43.3983784,30.5723442 45.1898133,32.4767338 47.9952587,32.4767338 C50.9021154,32.4935896 52.5076387,30.7240273 52.7949369,27.4545584 C52.7949369,27.3365857 52.8118414,27.2523234 52.8118414,27.1680481 L49.8373927,27.1680481" id="path19838"></path>
                </g>
            </g>
        </g>
    </g>
</svg>