<svg xmlns="http://www.w3.org/2000/svg" viewBox="0 0 6844 6844"><path d="m3404 1036c-814 0-1581 2300-1754 2964h750c220-582 349-874 581-1182 104-137 239-276 423-276 160 0 282 105 379 221 269 322 457 783 625 1237h748c-234-871-977-2964-1752-2964m-22 3041c-170 0-413 36-413 250 0 132 104 192 223 215l233 45c41 8 123 18 123 72 0 69-109 78-159 78-78 0-153-23-189-95l-269 8c10 220 259 264 442 264 179 0 456-42 456-269 0-119-86-187-197-211l-243-51c-41-10-140-21-140-76 0-54 80-59 118-59 68 0 146 4 173 73l273-17c-18-205-265-227-431-227zm950 0c-170 0-413 36-413 250 0 132 104 192 223 215l233 45c41 8 123 18 123 72 0 69-109 78-159 78-78 0-153-23-189-95l-269 8c10 220 259 264 442 264 179 0 456-42 456-269 0-119-86-187-197-211l-243-51c-41-10-140-21-140-76 0-54 80-59 118-59 68 0 146 4 173 73l273-17c-18-205-265-227-431-227m-4222 31v175h287v603h284v-603h283v-175zm902 0v778h284v-296h354v296h284v-778h-284v280h-354v-280zm947 0l367 545v233h283v-241l368-537h-1-338l-142 241c-15 26-24 53-31 80-5-29-13-54-28-80l-142-241zm3851 0v778h284v-409l371 409h245v-778h-284v410l-372-410zm-959 1v777h863v-176h-570v-122h513v-186h-513v-119h560v-174zm-3445 858l-215 846h597l284-846zm3351 0l291 846h621l-223-846z" fill="#BABCBE"/></svg>
