
<svg width="101px" height="78px" viewBox="164 98 101 78" version="1.1" xmlns="http://www.w3.org/2000/svg" xmlns:xlink="http://www.w3.org/1999/xlink">
    <!-- Generator: Sketch 42 (36781) - http://www.bohemiancoding.com/sketch -->
    <desc>Created with Sketch.</desc>
    <defs></defs>
    <g id="thyssen-logo" stroke="none" stroke-width="1" fill="none" fill-rule="evenodd" transform="translate(164.000000, 98.000000)">
        <g id="Primary_Logo" fill-rule="nonzero" fill="#BABCBE">
            <g id="g5" transform="translate(0.892516, 0.708170)">
                <path d="M68.23,17.858 C68.073,8.223 60.192,0.433 50.521,0.433 C40.85,0.433 32.969,8.224 32.812,17.858 C26.557,20.596 22.175,26.841 22.175,34.094 C22.175,43.863 30.122,51.81 39.891,51.81 C43.876,51.81 47.558,50.486 50.521,48.257 C53.484,50.486 57.166,51.81 61.151,51.81 C70.92,51.81 78.868,43.862 78.868,34.094 C78.867,26.842 74.484,20.596 68.23,17.858 L68.23,17.858 Z M57.529,32.467 C57.119,27.993 55.041,23.996 51.921,21.104 C53.764,19.791 55.895,18.86 58.201,18.427 C59.766,21.371 61.208,24.946 62.485,28.671 C61.105,30.24 59.423,31.537 57.529,32.467 Z M50.521,45.966 C47.486,43.246 45.498,39.383 45.238,35.061 C46.907,35.583 48.682,35.866 50.521,35.866 C52.36,35.866 54.135,35.584 55.804,35.061 C55.543,39.384 53.555,43.246 50.521,45.966 Z M38.556,28.672 C39.833,24.947 41.274,21.372 42.84,18.428 C45.146,18.861 47.278,19.792 49.12,21.105 C46,23.997 43.921,27.994 43.512,32.468 C41.618,31.537 39.937,30.24 38.556,28.672 L38.556,28.672 Z M37.261,26.993 C35.724,24.696 34.768,21.979 34.603,19.055 C36.259,18.471 38.038,18.15 39.891,18.15 C40.256,18.15 40.616,18.167 40.974,18.191 C39.712,20.629 38.474,23.562 37.261,26.993 L37.261,26.993 Z M43.755,16.808 C45.844,13.329 48.128,11.063 50.521,11.063 C52.914,11.063 55.198,13.329 57.287,16.808 C54.795,17.365 52.497,18.444 50.521,19.931 C48.544,18.444 46.248,17.364 43.755,16.808 Z M50.521,34.094 C48.668,34.094 46.889,33.773 45.233,33.189 C45.478,28.842 47.471,24.955 50.521,22.222 C53.57,24.955 55.564,28.842 55.809,33.189 C54.152,33.773 52.374,34.094 50.521,34.094 Z M60.067,18.19 C60.425,18.166 60.786,18.149 61.15,18.149 C63.004,18.149 64.782,18.47 66.438,19.054 C66.273,21.979 65.317,24.696 63.78,26.992 C62.568,23.562 61.329,20.629 60.067,18.19 L60.067,18.19 Z M50.521,2.205 C58.988,2.205 65.932,8.84 66.434,17.183 C64.765,16.661 62.99,16.378 61.151,16.378 C60.471,16.378 59.801,16.42 59.141,16.495 C56.365,11.707 53.483,9.291 50.521,9.291 C47.56,9.291 44.677,11.707 41.901,16.495 C41.241,16.42 40.571,16.378 39.891,16.378 C38.052,16.378 36.278,16.66 34.608,17.183 C35.11,8.839 42.054,2.205 50.521,2.205 L50.521,2.205 Z M23.946,34.095 C23.946,27.816 27.595,22.376 32.882,19.777 C33.2,23.25 34.525,26.434 36.561,29.039 C36.529,29.136 36.497,29.229 36.465,29.326 C33.918,37.061 32.216,44.873 31.63,47.728 C27.026,44.928 23.946,39.864 23.946,34.095 L23.946,34.095 Z M39.891,50.04 C37.525,50.04 35.281,49.518 33.26,48.59 C34.121,44.178 35.749,37.276 37.919,30.587 C39.492,32.181 41.363,33.477 43.442,34.387 C43.524,39.398 45.693,43.909 49.121,47.086 C46.513,48.942 43.329,50.04 39.891,50.04 L39.891,50.04 Z M51.921,47.084 C55.348,43.907 57.518,39.396 57.6,34.385 C59.679,33.475 61.551,32.179 63.124,30.585 C65.293,37.274 66.921,44.176 67.783,48.588 C65.762,49.516 63.517,50.038 61.151,50.038 C57.712,50.04 54.528,48.942 51.921,47.084 L51.921,47.084 Z M69.412,47.728 C68.826,44.873 67.123,37.061 64.577,29.326 C64.545,29.229 64.513,29.136 64.48,29.039 C66.517,26.435 67.841,23.25 68.159,19.777 C73.447,22.376 77.096,27.816 77.096,34.095 C77.096,39.864 74.015,44.928 69.412,47.728 L69.412,47.728 Z" id="path7"></path>
                <path d="M94.771,71.601 C94.519,71.491 94.303,71.335 94.125,71.133 C93.947,70.931 93.809,70.689 93.71,70.407 C93.612,70.125 93.563,69.812 93.563,69.467 L93.563,67.204 C93.563,66.824 93.621,66.49 93.737,66.202 C93.853,65.914 94.006,65.673 94.195,65.48 C94.385,65.287 94.607,65.143 94.859,65.048 C95.111,64.953 95.371,64.906 95.638,64.906 C95.923,64.906 96.189,64.958 96.435,65.062 C96.681,65.166 96.884,65.326 97.041,65.543 C97.198,65.76 97.321,66.041 97.411,66.385 C97.476,66.64 97.522,66.932 97.549,67.258 C97.575,67.585 97.589,67.932 97.589,68.3 C97.589,68.585 97.575,68.903 97.549,69.253 C97.522,69.604 97.488,69.892 97.446,70.117 C97.345,70.634 97.146,71.037 96.849,71.329 C96.552,71.62 96.137,71.765 95.602,71.765 C95.301,71.766 95.024,71.711 94.771,71.601 L94.771,71.601 Z M93.564,76.079 L93.564,72.149 C93.701,72.327 93.883,72.511 94.112,72.701 C94.341,72.891 94.622,73.041 94.958,73.151 C95.294,73.261 95.69,73.316 96.147,73.316 C96.521,73.316 96.901,73.254 97.288,73.129 C97.674,73.004 98.018,72.786 98.321,72.474 C98.624,72.162 98.862,71.771 99.034,71.303 C99.17,70.941 99.271,70.514 99.337,70.024 C99.402,69.534 99.435,68.96 99.435,68.3 C99.435,67.558 99.393,66.905 99.31,66.344 C99.227,65.783 99.081,65.291 98.873,64.869 C98.362,63.86 97.463,63.355 96.174,63.355 C95.538,63.355 95.003,63.484 94.566,63.743 C94.129,64.001 93.777,64.345 93.51,64.772 L93.466,63.641 L91.773,63.641 L91.773,76.079 L93.564,76.079 L93.564,76.079 Z M85.614,71.601 C85.362,71.491 85.146,71.335 84.968,71.133 C84.789,70.931 84.652,70.689 84.553,70.407 C84.454,70.125 84.406,69.812 84.406,69.467 L84.406,67.204 C84.406,66.824 84.464,66.49 84.579,66.202 C84.695,65.914 84.848,65.673 85.038,65.48 C85.228,65.287 85.449,65.143 85.701,65.048 C85.953,64.953 86.214,64.906 86.481,64.906 C86.766,64.906 87.032,64.958 87.278,65.062 C87.524,65.166 87.726,65.326 87.884,65.543 C88.041,65.76 88.164,66.041 88.254,66.385 C88.319,66.64 88.365,66.932 88.392,67.258 C88.419,67.585 88.432,67.932 88.432,68.3 C88.432,68.585 88.419,68.903 88.392,69.253 C88.365,69.604 88.331,69.892 88.289,70.117 C88.188,70.634 87.989,71.037 87.692,71.329 C87.395,71.62 86.98,71.765 86.445,71.765 C86.145,71.766 85.867,71.711 85.614,71.601 L85.614,71.601 Z M84.407,76.079 L84.407,72.149 C84.543,72.327 84.726,72.511 84.955,72.701 C85.184,72.891 85.466,73.041 85.801,73.151 C86.137,73.261 86.533,73.316 86.99,73.316 C87.365,73.316 87.744,73.254 88.13,73.129 C88.516,73.004 88.861,72.786 89.164,72.474 C89.467,72.162 89.705,71.771 89.876,71.303 C90.013,70.941 90.114,70.514 90.179,70.024 C90.245,69.534 90.278,68.96 90.278,68.3 C90.278,67.558 90.236,66.905 90.153,66.344 C90.07,65.783 89.924,65.291 89.716,64.869 C89.205,63.86 88.305,63.355 87.017,63.355 C86.381,63.355 85.845,63.484 85.409,63.743 C84.972,64.001 84.62,64.345 84.353,64.772 L84.308,63.641 L82.616,63.641 L82.616,76.079 L84.407,76.079 L84.407,76.079 Z M77.91,72.911 C78.37,72.641 78.761,72.283 79.081,71.838 L79.099,73.023 L80.791,73.023 L80.791,63.642 L79,63.642 L79,69.174 C79,69.489 78.932,69.835 78.795,70.212 C78.658,70.589 78.416,70.923 78.069,71.214 C77.722,71.505 77.328,71.65 76.889,71.65 C76.354,71.65 75.956,71.515 75.695,71.245 C75.434,70.975 75.303,70.552 75.303,69.975 L75.303,63.641 L73.512,63.641 L73.512,70.465 C73.512,71.011 73.592,71.467 73.752,71.833 C73.913,72.198 74.122,72.491 74.38,72.71 C74.638,72.93 74.929,73.086 75.253,73.178 C75.577,73.27 75.901,73.316 76.228,73.316 C76.89,73.316 77.449,73.181 77.91,72.911 L77.91,72.911 Z M69.371,73.022 L69.371,68.701 C69.371,68.309 69.421,67.855 69.522,67.338 C69.623,66.821 69.868,66.368 70.257,65.979 C70.646,65.59 71.17,65.396 71.829,65.396 C72.049,65.396 72.212,65.408 72.319,65.432 L72.319,63.623 L72.088,63.623 C71.482,63.623 70.936,63.799 70.449,64.149 C69.962,64.499 69.575,64.989 69.291,65.619 L69.273,63.641 L67.581,63.641 L67.581,73.022 L69.371,73.022 L69.371,73.022 Z M60.721,73.022 L60.721,69.262 L61.959,68.006 L64.417,73.022 L66.448,73.022 L63.267,66.67 L66.243,63.641 L64.114,63.641 L60.72,67.106 L60.72,60.326 L58.93,60.326 L58.93,73.022 L60.721,73.022 L60.721,73.022 Z M51.361,73.022 L51.361,67.489 C51.361,67.169 51.431,66.816 51.57,66.429 C51.71,66.043 51.951,65.708 52.296,65.423 C52.64,65.138 53.038,64.995 53.49,64.995 C54.024,64.995 54.413,65.132 54.657,65.405 C54.9,65.678 55.022,66.099 55.022,66.67 L55.022,73.022 L56.813,73.022 L56.813,66.198 C56.813,65.646 56.713,65.147 56.515,64.701 C56.316,64.256 56.01,63.92 55.597,63.694 C55.184,63.469 54.702,63.356 54.15,63.356 C53.485,63.356 52.921,63.49 52.457,63.757 C51.994,64.025 51.602,64.381 51.281,64.826 L51.263,63.641 L49.57,63.641 L49.57,73.022 L51.361,73.022 L51.361,73.022 Z M42.261,66.22 C42.365,65.861 42.503,65.575 42.675,65.365 C42.847,65.155 43.052,65.006 43.29,64.92 C43.527,64.834 43.789,64.791 44.074,64.791 C44.377,64.791 44.678,64.85 44.978,64.969 C45.278,65.088 45.519,65.361 45.7,65.788 C45.881,66.215 45.972,66.809 45.972,67.57 L42.088,67.57 C42.099,67.029 42.157,66.58 42.261,66.22 L42.261,66.22 Z M45.628,73.111 C46.088,72.975 46.478,72.765 46.795,72.483 C47.112,72.201 47.384,71.846 47.61,71.419 L46.193,70.689 C46.116,70.819 46.003,70.971 45.855,71.143 C45.707,71.315 45.494,71.465 45.218,71.593 C44.942,71.721 44.629,71.785 44.278,71.785 C43.951,71.785 43.653,71.743 43.383,71.66 C43.112,71.577 42.88,71.434 42.683,71.232 C42.487,71.03 42.336,70.76 42.229,70.421 C42.122,70.082 42.068,69.661 42.068,69.156 L42.068,68.898 L47.725,68.898 L47.725,67.918 C47.725,67.496 47.704,67.054 47.663,66.59 C47.622,66.126 47.525,65.694 47.373,65.294 C47.222,64.893 46.998,64.538 46.701,64.229 C46.433,63.962 46.098,63.75 45.694,63.592 C45.29,63.435 44.791,63.356 44.197,63.356 C43.556,63.356 43.012,63.438 42.567,63.601 C42.122,63.765 41.747,64.004 41.444,64.319 C41.218,64.545 41.015,64.837 40.834,65.196 C40.653,65.556 40.515,66.022 40.42,66.595 C40.325,67.168 40.277,67.814 40.277,68.533 C40.277,69.085 40.307,69.583 40.366,70.025 C40.426,70.468 40.53,70.876 40.678,71.25 C40.928,71.897 41.336,72.404 41.903,72.769 C42.47,73.134 43.217,73.317 44.144,73.317 C44.673,73.316 45.168,73.248 45.628,73.111 L45.628,73.111 Z M36.425,73.223 C36.731,73.161 37.001,73.079 37.236,72.978 C37.471,72.877 37.673,72.766 37.842,72.644 C38.011,72.523 38.143,72.399 38.238,72.275 C38.422,72.043 38.571,71.793 38.683,71.522 C38.796,71.252 38.852,70.912 38.852,70.501 C38.852,70.157 38.813,69.863 38.736,69.62 C38.658,69.376 38.569,69.171 38.468,69.005 C38.325,68.791 38.12,68.576 37.853,68.359 C37.586,68.142 37.063,67.915 36.285,67.677 C35.893,67.564 35.546,67.451 35.243,67.339 C34.94,67.226 34.683,67.106 34.472,66.978 C34.261,66.85 34.102,66.71 33.995,66.559 C33.889,66.408 33.835,66.234 33.835,66.038 C33.835,65.634 33.962,65.329 34.218,65.121 C34.372,64.984 34.559,64.889 34.779,64.836 C34.999,64.782 35.257,64.755 35.554,64.755 C35.993,64.755 36.365,64.849 36.668,65.036 C36.971,65.223 37.209,65.513 37.38,65.905 L38.815,65.21 C38.56,64.586 38.153,64.122 37.594,63.816 C37.036,63.51 36.35,63.357 35.536,63.357 C35.078,63.357 34.638,63.414 34.213,63.526 C33.788,63.639 33.431,63.805 33.143,64.025 C32.855,64.245 32.637,64.5 32.489,64.791 C32.358,65.022 32.267,65.263 32.217,65.512 C32.167,65.762 32.141,65.991 32.141,66.198 C32.141,66.436 32.177,66.687 32.248,66.951 C32.32,67.216 32.441,67.457 32.614,67.677 C32.75,67.849 32.946,68.029 33.201,68.216 C33.456,68.403 33.777,68.571 34.163,68.719 L35.535,69.226 C35.778,69.321 36.026,69.422 36.279,69.529 C36.532,69.636 36.732,69.78 36.881,69.961 C37.029,70.142 37.104,70.384 37.104,70.687 C37.104,70.895 37.057,71.072 36.961,71.217 C36.866,71.362 36.738,71.48 36.578,71.569 C36.418,71.658 36.231,71.722 36.017,71.76 C35.803,71.799 35.575,71.818 35.331,71.818 C35.064,71.818 34.826,71.785 34.619,71.72 C34.411,71.655 34.224,71.564 34.057,71.449 C33.89,71.334 33.745,71.198 33.62,71.044 C33.495,70.889 33.385,70.72 33.29,70.536 L31.811,71.195 C31.93,71.51 32.093,71.795 32.301,72.05 C32.509,72.305 32.758,72.526 33.049,72.709 C33.352,72.893 33.689,73.04 34.06,73.15 C34.432,73.26 34.884,73.315 35.419,73.315 C35.785,73.316 36.12,73.285 36.425,73.223 L36.425,73.223 Z M28.406,73.223 C28.712,73.161 28.982,73.079 29.217,72.978 C29.452,72.877 29.654,72.766 29.823,72.644 C29.992,72.523 30.124,72.399 30.219,72.275 C30.404,72.043 30.552,71.793 30.665,71.522 C30.778,71.252 30.834,70.912 30.834,70.501 C30.834,70.157 30.795,69.863 30.718,69.62 C30.641,69.376 30.552,69.171 30.451,69.005 C30.308,68.791 30.104,68.576 29.836,68.359 C29.568,68.142 29.046,67.915 28.268,67.677 C27.876,67.564 27.529,67.451 27.226,67.339 C26.923,67.226 26.666,67.106 26.455,66.978 C26.244,66.85 26.085,66.71 25.978,66.559 C25.871,66.408 25.818,66.234 25.818,66.038 C25.818,65.634 25.945,65.329 26.201,65.121 C26.356,64.984 26.542,64.889 26.762,64.836 C26.982,64.782 27.241,64.755 27.537,64.755 C27.976,64.755 28.348,64.849 28.65,65.036 C28.953,65.223 29.191,65.513 29.363,65.905 L30.797,65.21 C30.542,64.586 30.135,64.122 29.577,63.816 C29.019,63.51 28.333,63.357 27.519,63.357 C27.061,63.357 26.621,63.414 26.196,63.526 C25.771,63.638 25.415,63.805 25.127,64.025 C24.838,64.245 24.621,64.5 24.472,64.791 C24.342,65.022 24.251,65.263 24.201,65.512 C24.151,65.762 24.125,65.991 24.125,66.198 C24.125,66.436 24.161,66.687 24.232,66.951 C24.303,67.216 24.425,67.457 24.597,67.677 C24.734,67.849 24.93,68.029 25.185,68.216 C25.44,68.403 25.761,68.571 26.147,68.719 L27.52,69.226 C27.763,69.321 28.011,69.422 28.264,69.529 C28.517,69.636 28.717,69.78 28.866,69.961 C29.014,70.142 29.089,70.384 29.089,70.687 C29.089,70.895 29.041,71.072 28.946,71.217 C28.851,71.362 28.723,71.48 28.563,71.569 C28.403,71.658 28.215,71.722 28.001,71.76 C27.788,71.799 27.559,71.818 27.315,71.818 C27.047,71.818 26.81,71.785 26.602,71.72 C26.394,71.655 26.207,71.564 26.041,71.449 C25.874,71.333 25.729,71.198 25.604,71.044 C25.479,70.889 25.369,70.72 25.274,70.536 L23.795,71.195 C23.914,71.51 24.077,71.795 24.285,72.05 C24.493,72.305 24.743,72.526 25.034,72.709 C25.337,72.893 25.674,73.04 26.045,73.15 C26.416,73.26 26.869,73.315 27.403,73.315 C27.766,73.316 28.1,73.285 28.406,73.223 L28.406,73.223 Z M17.488,76.158 C17.826,76.063 18.156,75.834 18.476,75.472 C18.797,75.11 19.094,74.572 19.367,73.859 L23.358,63.641 L21.576,63.641 L19.126,70.136 L16.792,63.641 L14.966,63.641 L18.2,72.585 L17.782,73.476 C17.657,73.803 17.484,74.091 17.261,74.34 C17.038,74.59 16.719,74.714 16.303,74.714 C16.155,74.714 16.015,74.702 15.884,74.678 L15.884,76.264 C16.045,76.287 16.255,76.3 16.517,76.3 C16.826,76.301 17.149,76.253 17.488,76.158 L17.488,76.158 Z M8.585,73.022 L8.585,67.489 C8.585,67.169 8.655,66.816 8.795,66.429 C8.934,66.043 9.176,65.708 9.521,65.423 C9.866,65.138 10.264,64.995 10.715,64.995 C11.25,64.995 11.638,65.132 11.882,65.405 C12.126,65.678 12.248,66.099 12.248,66.67 L12.248,73.022 L14.038,73.022 L14.038,66.198 C14.038,65.646 13.939,65.147 13.74,64.701 C13.541,64.256 13.235,63.92 12.823,63.694 C12.41,63.469 11.928,63.356 11.375,63.356 C10.734,63.356 10.189,63.478 9.741,63.721 C9.292,63.965 8.908,64.297 8.587,64.719 L8.587,60.326 L6.797,60.326 L6.797,73.022 L8.585,73.022 L8.585,73.022 Z M5.247,73.022 L5.247,71.543 C5.021,71.566 4.795,71.579 4.57,71.579 C4.291,71.579 4.064,71.543 3.888,71.472 C3.713,71.401 3.575,71.294 3.474,71.152 C3.373,71.009 3.305,70.831 3.269,70.617 C3.233,70.403 3.216,70.154 3.216,69.868 L3.216,65.048 L5.149,65.048 L5.149,63.641 L3.216,63.641 L3.216,60.327 L1.434,60.327 L1.434,63.641 L0.222,63.641 L0.222,65.048 L1.434,65.048 L1.434,69.886 C1.434,70.367 1.474,70.805 1.554,71.2 C1.634,71.595 1.78,71.93 1.991,72.207 C2.201,72.483 2.491,72.696 2.859,72.848 C3.227,73 3.699,73.076 4.276,73.076 C4.62,73.076 4.944,73.058 5.247,73.022 L5.247,73.022 Z" id="path9"></path>
            </g>
        </g>
    </g>
</svg>
