
<svg width="168px" height="28px" viewBox="306 27 168 28" version="1.1" xmlns="http://www.w3.org/2000/svg" xmlns:xlink="http://www.w3.org/1999/xlink">
    <!-- Generator: Sketch 42 (36781) - http://www.bohemiancoding.com/sketch -->
    <desc>Created with Sketch.</desc>
    <defs></defs>
    <g id="united-healthcare-logo1" stroke="none" stroke-width="1" fill="none" fill-rule="evenodd" transform="translate(306.000000, 27.000000)">
        <g id="Group" transform="translate(83.665306, 14.389796) scale(-1, 1) rotate(-180.000000) translate(-83.665306, -14.389796) translate(0.165306, 0.889796)" fill-rule="nonzero" fill="#BABCBE">
            <path d="M11.1306122,26.3387755 C10.6346939,26.044898 9.69795918,25.5306122 9.07346939,25.2 C7.86122449,24.5755102 7.58571429,24.1346939 8.39387755,24.1346939 L8.87142857,24.1346939 L8.77959184,15.8326531 C8.7244898,9.01836735 8.65102041,7.31020408 8.4122449,6.41020408 C7.73265306,3.80204082 5.95102041,1.89183673 4.40816327,2.13061224 C4.00408163,2.18571429 4.02244898,2.22244898 4.62857143,2.51632653 C6.0244898,3.19591837 6.86938776,4.53673469 7.38367347,6.85102041 C7.69591837,8.26530612 7.73265306,9.25714286 7.73265306,16.3836735 C7.73265306,23.0877551 7.69591837,24.3367347 7.4755102,24.2816327 C7.32857143,24.244898 5.60204082,23.3632653 3.6,22.2979592 L0,20.3693878 L0.0551020408,12.9306122 C0.110204082,7.32857143 0.183673469,5.32653061 0.367346939,4.84897959 C0.587755102,4.27959184 3.58163265,1.1755102 3.9122449,1.1755102 C3.98571429,1.1755102 4.24285714,0.973469388 4.48163265,0.734693878 C6.26326531,-1.04693878 9.80816327,0.606122449 11.1673469,3.83877551 C12.2510204,6.39183673 12.4897959,9.38571429 12.5081633,19.6897959 C12.5081633,25.3285714 12.4530612,26.8897959 12.2877551,26.8714286 C12.1591837,26.8714286 11.644898,26.6326531 11.1306122,26.3387755 Z M11.222449,17.6693878 C11.222449,8.35714286 11.0020408,6.22653061 9.80816327,3.83877551 C8.94489796,2.1122449 7.45714286,0.973469388 6.09795918,1.01020408 L5.25306122,1.02857143 L5.89591837,1.23061224 C6.68571429,1.4877551 8.28367347,3.04897959 8.81632653,4.07755102 C9.03673469,4.5 9.38571429,5.56530612 9.60612245,6.44693878 C9.97346939,7.97142857 10.0102041,8.61428571 10.0836735,16.7510204 L10.1571429,25.4204082 L10.6897959,25.4204082 L11.222449,25.4204082 L11.222449,17.6693878 Z M6.41020408,22.8673469 C6.63061224,22.7387755 6.64897959,21.4163265 6.5755102,15.4836735 C6.48367347,7.80612245 6.37346939,6.66734694 5.52857143,5.10612245 C5.03265306,4.16938776 3.93061224,3.19591837 3.37959184,3.19591837 C2.81020408,3.19591837 2.84693878,3.37959184 3.56326531,3.9122449 C4.24285714,4.40816327 4.66530612,5.17959184 5.10612245,6.68571429 C5.34489796,7.5122449 5.4,9.09183673 5.47346939,15.3734694 C5.56530612,22.3163265 5.60204082,23.0326531 5.87755102,23.0326531 C6.04285714,23.0326531 6.28163265,22.9591837 6.41020408,22.8673469 Z" id="Shape"></path>
            <path d="M43.2183673,19.8 C42.6857143,19.4326531 42.6306122,17.7428571 43.144898,17.2836735 C44.0265306,16.4755102 45.2020408,17.1918367 45.2020408,18.5326531 C45.2020408,19.8734694 44.2285714,20.5163265 43.2183673,19.8 Z" id="Shape"></path>
            <path d="M70.9714286,19.9653061 C69.6857143,19.8918367 69.6306122,19.8734694 69.6306122,19.4510204 C69.6306122,19.1020408 69.722449,18.9918367 70.0530612,18.9918367 C70.2918367,18.9918367 70.6408163,18.8816327 70.8428571,18.7346939 C71.155102,18.4959184 71.1918367,18.2020408 71.2469388,16.1081633 C71.2836735,13.9959184 71.2653061,13.7938776 71.0081633,14.1061224 C70.2367347,15.0979592 68.6755102,15.4285714 67.3530612,14.877551 C65.3326531,14.0326531 64.0653061,10.9285714 64.5061224,7.86122449 C64.9102041,4.97755102 66.4530612,3.19591837 68.5285714,3.19591837 C69.5204082,3.19591837 70.4020408,3.58163265 70.8795918,4.2244898 L71.2653061,4.75714286 L71.2836735,4.04081633 L71.2836735,3.3244898 L72.2571429,3.45306122 C72.7714286,3.50816327 73.5612245,3.56326531 74.0020408,3.56326531 C74.7,3.56326531 74.7734694,3.6 74.7734694,4.00408163 C74.7734694,4.33469388 74.644898,4.46326531 74.2408163,4.53673469 C73.377551,4.72040816 73.3040816,5.28979592 73.3040816,13.077551 L73.3040816,20.0938776 L72.8081633,20.0571429 C72.5142857,20.0387755 71.6877551,19.9836735 70.9714286,19.9653061 Z M69.9428571,13.8122449 C70.8612245,13.0591837 71.3938776,10.1755102 71.1,7.62244898 C70.9163265,5.96938776 70.6040816,5.10612245 69.9795918,4.53673469 C69.2632653,3.8755102 68.6755102,3.83877551 68.0142857,4.38979592 C67.1877551,5.0877551 66.8020408,6.96122449 66.9306122,9.67959184 C67.022449,12.0122449 67.3897959,13.2795918 68.1244898,13.8673469 C68.6387755,14.2714286 69.4285714,14.2530612 69.9428571,13.8122449 Z" id="Shape"></path>
            <path d="M108.62449,19.9653061 C107.357143,19.8918367 107.283673,19.8734694 107.283673,19.4693878 C107.283673,19.1387755 107.412245,19.0102041 107.853061,18.9183673 C108.936735,18.7163265 108.918367,18.7714286 108.936735,11.6081633 L108.936735,5.05102041 L108.459184,4.68367347 C107.72449,4.09591837 107.44898,4.16938776 107.669388,4.88571429 C107.761224,5.21632653 107.834694,5.80408163 107.834694,6.17142857 C107.834694,6.79591837 107.779592,6.86938776 107.37551,6.86938776 C106.971429,6.86938776 106.916327,6.79591837 106.916327,6.24489796 C106.916327,5.01428571 106.236735,4.13265306 105.92449,4.95918367 C105.869388,5.1244898 105.814286,7.03469388 105.814286,9.22040816 C105.814286,12.8938776 105.777551,13.2612245 105.446939,13.8122449 C104.914286,14.6755102 103.812245,15.1346939 102.214286,15.1346939 C100.010204,15.1346939 98.6877551,14.1612245 98.5040816,12.4163265 C98.4306122,11.6632653 98.4857143,11.4428571 98.8163265,11.1122449 C99.2938776,10.6346939 100.010204,10.6163265 100.487755,11.0938776 C100.983673,11.5897959 100.983673,12.8020408 100.487755,13.2979592 C100.138776,13.6469388 100.138776,13.6469388 100.542857,13.9408163 C100.763265,14.1061224 101.332653,14.2163265 101.865306,14.2163265 C103.242857,14.2163265 103.628571,13.7387755 103.757143,11.9571429 L103.830612,10.5979592 L102.489796,10.0836735 C99.3673469,8.88979592 97.9163265,7.56734694 97.9163265,5.96938776 C97.9163265,4.24285714 99,3.19591837 100.818367,3.19591837 C101.993878,3.19591837 102.87551,3.54489796 103.389796,4.20612245 L103.793878,4.70204082 L103.959184,4.24285714 C104.363265,3.19591837 106.034694,2.82857143 106.989796,3.58163265 C107.302041,3.82040816 107.467347,3.8755102 107.430612,3.71020408 C107.393878,3.52653061 107.908163,3.45306122 110.002041,3.41632653 L112.610204,3.36122449 L112.610204,3.82040816 C112.610204,4.16938776 112.481633,4.29795918 112.077551,4.38979592 C111.783673,4.44489796 111.453061,4.61020408 111.342857,4.73877551 C111.214286,4.88571429 111.122449,7.54897959 111.104082,12.4897959 L111.04898,20.0020408 L110.497959,20.0204082 C110.204082,20.0204082 109.340816,20.0020408 108.62449,19.9653061 Z M103.793878,8.76122449 C103.793878,7.73265306 103.316327,5.6755102 102.94898,5.1244898 C102.655102,4.66530612 101.810204,4.11428571 101.406122,4.11428571 C101.295918,4.11428571 101.002041,4.31632653 100.763265,4.57346939 C100.414286,4.90408163 100.304082,5.21632653 100.304082,5.85918367 C100.304082,6.83265306 100.597959,7.4755102 101.35102,8.19183673 C101.810204,8.63265306 103.279592,9.42244898 103.665306,9.44081633 C103.738776,9.44081633 103.793878,9.12857143 103.793878,8.76122449 Z" id="Shape"></path>
            <path d="M120.195918,19.9653061 C118.910204,19.8918367 118.855102,19.8734694 118.855102,19.4510204 C118.855102,19.1020408 118.946939,18.9918367 119.277551,18.9918367 C119.497959,18.9918367 119.883673,18.8632653 120.104082,18.6979592 L120.508163,18.422449 L120.508163,11.8102041 C120.508163,7.7877551 120.434694,5.05102041 120.32449,4.84897959 C120.232653,4.66530612 119.902041,4.46326531 119.589796,4.38979592 C119.167347,4.29795918 119.038776,4.16938776 119.038776,3.82040816 L119.038776,3.37959184 L121.610204,3.37959184 L124.181633,3.37959184 L124.181633,3.82040816 C124.181633,4.16938776 124.053061,4.29795918 123.64898,4.38979592 C122.712245,4.59183673 122.67551,4.73877551 122.74898,8.3755102 C122.785714,11.1857143 122.859184,11.8285714 123.134694,12.3428571 C124.053061,14.0326531 125.412245,14.4734694 126.146939,13.3530612 C126.440816,12.9122449 126.477551,12.2693878 126.532653,8.11836735 L126.587755,3.37959184 L128.332653,3.37959184 C130.059184,3.37959184 130.059184,3.37959184 130.059184,3.83877551 C130.059184,4.09591837 129.94898,4.29795918 129.802041,4.29795918 C129.673469,4.29795918 129.342857,4.46326531 129.067347,4.68367347 L128.589796,5.05102041 L128.589796,9.03673469 C128.589796,12.5632653 128.553061,13.0959184 128.240816,13.6653061 C127.726531,14.6387755 126.881633,15.1346939 125.706122,15.1346939 C124.567347,15.1346939 123.869388,14.822449 123.189796,14.0326531 L122.712245,13.4632653 L122.67551,16.7326531 L122.620408,20.0020408 L122.069388,20.0204082 C121.77551,20.0204082 120.912245,20.0020408 120.195918,19.9653061 Z" id="Shape"></path>
            <path d="M18.3857143,19.377551 C18.3857143,19.0836735 18.4959184,18.7530612 18.6428571,18.6428571 C18.8632653,18.4591837 18.9183673,17.3204082 18.9734694,12.3979592 L19.0285714,6.39183673 L19.5795918,5.28979592 C20.0571429,4.37142857 20.277551,4.13265306 21.177551,3.67346939 C23.1979592,2.64489796 26.0816327,2.86530612 27.4408163,4.16938776 C28.5612245,5.21632653 28.6714286,5.9877551 28.6714286,12.2142857 C28.6714286,15.244898 28.744898,17.8897959 28.855102,18.1469388 C28.9653061,18.4591837 29.2591837,18.6795918 29.7734694,18.8265306 C30.3612245,19.0102041 30.5081633,19.1387755 30.5081633,19.4877551 C30.5081633,19.9102041 30.5081633,19.9102041 28.1204082,19.9102041 L25.7326531,19.9102041 L25.7326531,19.4693878 C25.7326531,19.1204082 25.8612245,19.0102041 26.3755102,18.9183673 C27.5877551,18.6795918 27.5877551,18.6428571 27.5326531,11.8836735 L27.477551,5.82244898 L26.944898,5.14285714 C25.6591837,3.45306122 23.2897959,3.52653061 21.9857143,5.27142857 C21.6183673,5.76734694 21.6,6.0244898 21.544898,12.0489796 C21.5081633,16.5122449 21.544898,18.3673469 21.7102041,18.5510204 C21.8204082,18.6795918 22.1877551,18.844898 22.5367347,18.9183673 C23.0326531,19.0102041 23.1612245,19.1204082 23.1612245,19.4693878 L23.1612245,19.9102041 L20.7734694,19.9102041 L18.3857143,19.9102041 L18.3857143,19.377551 Z" id="Shape"></path>
            <path d="M75.3244898,19.4693878 C75.3244898,19.1387755 75.4714286,19.0102041 75.9122449,18.8816327 C76.9408163,18.5877551 76.977551,18.4040816 76.977551,11.644898 C76.977551,4.88571429 76.9408163,4.70204082 75.9122449,4.40816327 C75.4714286,4.27959184 75.3244898,4.15102041 75.3244898,3.82040816 L75.3244898,3.37959184 L78.1714286,3.37959184 L81.0183673,3.37959184 L81.0183673,3.82040816 C81.0183673,4.16938776 80.8897959,4.29795918 80.4673469,4.38979592 C79.4020408,4.62857143 79.3653061,4.73877551 79.3653061,8.35714286 L79.3653061,11.644898 L81.844898,11.644898 L84.3244898,11.644898 L84.3244898,8.4122449 C84.3244898,6.64897959 84.2510204,5.05102041 84.1408163,4.86734694 C84.0489796,4.68367347 83.6816327,4.46326531 83.3142857,4.40816327 C82.7816327,4.29795918 82.6714286,4.20612245 82.6714286,3.83877551 L82.6714286,3.37959184 L85.6102041,3.37959184 L88.5489796,3.37959184 L88.5489796,3.82040816 C88.5489796,4.15102041 88.4204082,4.27959184 87.9612245,4.37142857 C86.8591837,4.59183673 86.8959184,4.29795918 86.8959184,11.644898 C86.8959184,18.9918367 86.8591837,18.6979592 87.9612245,18.9183673 C88.4204082,19.0102041 88.5489796,19.1387755 88.5489796,19.4693878 L88.5489796,19.9102041 L85.6102041,19.9102041 L82.6714286,19.9102041 L82.6714286,19.4510204 C82.6714286,19.0836735 82.7816327,18.9918367 83.3142857,18.8816327 C83.6816327,18.8265306 84.0489796,18.6061224 84.1408163,18.422449 C84.2510204,18.2387755 84.3244898,16.8612245 84.3244898,15.3367347 L84.3244898,12.5632653 L81.844898,12.5632653 L79.3653061,12.5632653 L79.3653061,15.3734694 C79.3653061,18.4591837 79.4204082,18.6244898 80.522449,18.9 C80.8897959,18.9918367 81.0183673,19.1387755 81.0183673,19.4693878 L81.0183673,19.9102041 L78.1714286,19.9102041 L75.3244898,19.9102041 L75.3244898,19.4693878 Z" id="Shape"></path>
            <path d="M49.6102041,18.9367347 C49.6102041,18.6795918 49.444898,17.944898 49.2428571,17.2836735 C48.8571429,16.0530612 48.2326531,15.3 47.277551,14.9326531 C46.9836735,14.822449 46.855102,14.6204082 46.855102,14.3081633 C46.855102,13.8857143 46.9285714,13.8489796 47.5897959,13.8489796 L48.3244898,13.8489796 L48.3244898,9.36734694 C48.3244898,5.03265306 48.3428571,4.88571429 48.7469388,4.27959184 C48.9673469,3.94897959 49.3714286,3.56326531 49.6102041,3.43469388 C50.2714286,3.10408163 51.6122449,3.14081633 52.3653061,3.52653061 C53.155102,3.9122449 53.6326531,5.1244898 53.6510204,6.74081633 C53.6510204,7.73265306 53.6326531,7.7877551 53.1918367,7.7877551 C52.7510204,7.7877551 52.7326531,7.73265306 52.7326531,6.77755102 C52.7326531,4.88571429 51.7591837,3.61836735 50.8959184,4.38979592 C50.5653061,4.68367347 50.5285714,4.99591837 50.4918367,9.2755102 L50.4367347,13.8489796 L51.8693878,13.8489796 L53.2836735,13.8489796 L53.2836735,14.4 L53.2836735,14.9510204 L51.8693878,14.9510204 L50.4367347,14.9510204 L50.4367347,17.1 C50.4367347,19.2122449 50.4183673,19.2673469 50.0326531,19.322449 C49.6836735,19.377551 49.6102041,19.3040816 49.6102041,18.9367347 Z" id="Shape"></path>
            <path d="M115.089796,18.422449 C114.832653,16.6040816 113.987755,15.3367347 112.757143,14.8959184 C112.555102,14.822449 112.426531,14.5836735 112.426531,14.3081633 C112.426531,13.8857143 112.5,13.8489796 113.161224,13.8489796 L113.895918,13.8489796 L113.895918,9.36734694 C113.895918,5.03265306 113.914286,4.88571429 114.318367,4.27959184 C114.832653,3.50816327 115.420408,3.19591837 116.430612,3.19591837 C118.267347,3.19591837 119.038776,4.09591837 119.185714,6.46530612 L119.277551,7.7877551 L118.781633,7.7877551 C118.322449,7.7877551 118.304082,7.73265306 118.285714,6.83265306 C118.285714,5.52857143 117.955102,4.64693878 117.34898,4.31632653 C116.908163,4.05918367 116.834694,4.05918367 116.485714,4.37142857 C116.118367,4.70204082 116.1,4.90408163 116.1,9.29387755 L116.1,13.8489796 L117.477551,13.8489796 L118.855102,13.8489796 L118.855102,14.4 L118.855102,14.9510204 L117.477551,14.9510204 L116.118367,14.9510204 L116.063265,17.1183673 C116.008163,19.1571429 115.989796,19.2673469 115.622449,19.322449 C115.273469,19.377551 115.2,19.2673469 115.089796,18.422449 Z" id="Shape"></path>
            <path d="M31.5734694,15.0061224 C29.9938776,14.9326531 29.9571429,14.9326531 29.9571429,14.4918367 C29.9571429,14.1244898 30.0489796,14.0326531 30.4163265,14.0326531 C30.6734694,14.0326531 31.0408163,13.8673469 31.2428571,13.6653061 C31.5918367,13.3163265 31.6102041,13.0591837 31.6102041,9.29387755 C31.6102041,4.88571429 31.555102,4.61020408 30.5081633,4.38979592 C30.0857143,4.29795918 29.9571429,4.16938776 29.9571429,3.82040816 L29.9571429,3.37959184 L32.6204082,3.37959184 L35.2836735,3.37959184 L35.2836735,3.82040816 C35.2836735,4.16938776 35.155102,4.29795918 34.7326531,4.38979592 C33.7040816,4.61020408 33.5755102,5.05102041 33.6673469,8.28367347 C33.722449,10.9653061 33.777551,11.2591837 34.2183673,12.2326531 C34.5489796,12.9306122 34.9163265,13.4081633 35.3204082,13.6653061 C36.1102041,14.1428571 36.4959184,14.1244898 37.0285714,13.5734694 L37.4877551,13.1326531 L37.4877551,8.24693878 L37.4877551,3.37959184 L39.3244898,3.37959184 C41.1428571,3.37959184 41.1612245,3.37959184 41.1612245,3.82040816 C41.1612245,4.16938776 41.0326531,4.29795918 40.6285714,4.38979592 C40.3346939,4.44489796 40.0040816,4.61020408 39.8938776,4.72040816 C39.8020408,4.84897959 39.6918367,6.72244898 39.655102,9.18367347 C39.6,13.8489796 39.544898,14.0510204 38.3510204,14.7673469 C37.6530612,15.2081633 36.055102,15.2632653 35.3204082,14.877551 C34.7693878,14.5836735 33.9061224,13.7204082 33.7591837,13.2979592 C33.7040816,13.1510204 33.6489796,13.5 33.6489796,14.0877551 C33.6306122,14.822449 33.5571429,15.1163265 33.4102041,15.0979592 C33.2816327,15.0795918 32.455102,15.0244898 31.5734694,15.0061224 Z" id="Shape"></path>
            <path d="M41.5285714,14.7122449 C41.5285714,14.3632653 41.6755102,14.2530612 42.2265306,14.1061224 L42.9061224,13.9408163 L42.9612245,9.45918367 C42.9795918,6.44693878 42.9428571,4.90408163 42.7959184,4.73877551 C42.7040816,4.61020408 42.355102,4.44489796 42.0612245,4.38979592 C41.6571429,4.29795918 41.5285714,4.16938776 41.5285714,3.82040816 L41.5285714,3.37959184 L44.1918367,3.37959184 C46.855102,3.37959184 46.855102,3.37959184 46.855102,3.80204082 C46.855102,4.11428571 46.7081633,4.26122449 46.2673469,4.38979592 C45.2571429,4.70204082 45.2020408,4.99591837 45.2020408,10.322449 L45.2020408,15.1346939 L43.3653061,15.1346939 C41.5653061,15.1346939 41.5285714,15.1346939 41.5285714,14.7122449 Z" id="Shape"></path>
            <path d="M57.2326531,14.8040816 C55.4693878,13.9591837 54.5326531,12.2510204 54.422449,9.69795918 C54.3122449,7.34693878 54.7897959,5.87755102 56.1306122,4.55510204 C57.177551,3.50816327 57.9306122,3.19591837 59.455102,3.19591837 C61.255102,3.19591837 62.7244898,4.42653061 63.2387755,6.37346939 C63.4408163,7.12653061 63.422449,7.27346939 63.2020408,7.42040816 C62.7061224,7.73265306 62.5408163,7.62244898 62.3204082,6.83265306 C61.8612245,5.1244898 60.9612245,4.26122449 59.6204082,4.2244898 C58.9408163,4.20612245 58.7204082,4.29795918 58.1693878,4.83061224 C57.4530612,5.52857143 57.0122449,6.6122449 56.8285714,8.1 L56.7183673,9.07346939 L59.9693878,9.07346939 C62.7795918,9.07346939 63.2204082,9.11020408 63.3306122,9.36734694 C63.5142857,9.84489796 62.8897959,12.3428571 62.3755102,13.2244898 C61.6591837,14.4367347 60.6673469,15.0244898 59.1795918,15.0979592 C58.2795918,15.1346939 57.7836735,15.0612245 57.2326531,14.8040816 Z M59.9326531,13.9040816 C60.4653061,13.2795918 60.6857143,12.655102 60.8142857,11.4244898 L60.9244898,10.1755102 L58.8489796,10.1755102 L56.7734694,10.1755102 L56.7734694,10.7265306 C56.7734694,11.8285714 57.177551,13.1142857 57.6918367,13.6653061 C58.0959184,14.1061224 58.3530612,14.2163265 58.922449,14.2163265 C59.4,14.2163265 59.7489796,14.1061224 59.9326531,13.9040816 Z" id="Shape"></path>
            <path d="M91.5795918,14.8040816 C90.6795918,14.3816327 89.7428571,13.3346939 89.2102041,12.2142857 C88.8979592,11.5163265 88.8244898,11.0020408 88.8244898,9.34897959 C88.8244898,7.42040816 88.8612245,7.25510204 89.4306122,6.09795918 C90.422449,4.09591837 91.7632653,3.19591837 93.8204082,3.19591837 C95.0693878,3.19591837 96.2081633,3.80204082 96.9244898,4.86734694 C97.5673469,5.84081633 97.8795918,7.21836735 97.5122449,7.45714286 C97.0530612,7.75102041 96.8877551,7.58571429 96.6489796,6.66734694 C96.3367347,5.47346939 95.5285714,4.55510204 94.5918367,4.29795918 C93.6734694,4.04081633 93.2142857,4.1877551 92.4428571,4.90408163 C91.8183673,5.51020408 91.4326531,6.52040816 91.2122449,8.21020408 L91.1020408,9.07346939 L94.3346939,9.07346939 C96.9979592,9.07346939 97.5857143,9.12857143 97.6591837,9.34897959 C97.8612245,9.86326531 97.3469388,12.122449 96.7959184,13.077551 C96.0244898,14.4367347 95.0693878,15.0244898 93.5265306,15.0979592 C92.6265306,15.1346939 92.1122449,15.0612245 91.5795918,14.8040816 Z M94.3714286,13.8122449 C94.8489796,13.2979592 95.1612245,12.1959184 95.1612245,11.0571429 L95.1612245,10.1755102 L93.122449,10.1755102 L91.1020408,10.1755102 L91.2306122,11.2408163 C91.377551,12.5632653 91.7816327,13.5918367 92.277551,13.9408163 C92.8836735,14.3632653 93.9306122,14.2897959 94.3714286,13.8122449 Z" id="Shape"></path>
            <path d="M133.787755,14.5836735 C131.74898,13.7571429 130.389796,11.4612245 130.371429,8.77959184 C130.334694,5.38163265 132.355102,2.82857143 135.073469,2.82857143 C137.204082,2.82857143 138.544898,4.09591837 138.820408,6.33673469 C138.930612,7.2 138.912245,7.23673469 138.471429,7.23673469 C138.04898,7.23673469 137.97551,7.14489796 137.883673,6.42857143 C137.810204,5.9877551 137.516327,5.27142857 137.222449,4.86734694 C136.083673,3.30612245 134.320408,3.48979592 133.383673,5.30816327 C132.942857,6.17142857 132.906122,6.39183673 132.906122,8.79795918 C132.906122,11.2591837 132.92449,11.4061224 133.420408,12.3428571 C134.228571,13.8673469 135.440816,14.4 136.671429,13.7571429 C137.332653,13.4081633 137.773469,12.7285714 137.240816,12.8755102 C136.671429,13.022449 136.304082,12.4530612 136.304082,11.3693878 C136.304082,10.4510204 136.340816,10.3408163 136.855102,10.0836735 C137.571429,9.71632653 137.718367,9.73469388 138.232653,10.2673469 C138.802041,10.8183673 138.838776,12.1040816 138.342857,13.2428571 C137.681633,14.6755102 135.587755,15.2816327 133.787755,14.5836735 Z" id="Shape"></path>
            <path d="M142.291837,14.6020408 C141.208163,14.1612245 140.730612,13.7571429 140.418367,12.9857143 C140.032653,12.0857143 140.106122,11.3326531 140.620408,10.8183673 C141.153061,10.2673469 141.630612,10.2306122 142.2,10.7081633 C142.842857,11.222449 142.82449,12.6183673 142.181633,13.1142857 L141.722449,13.4632653 L142.402041,13.7387755 C143.412245,14.1612245 144.27551,14.1061224 144.881633,13.5918367 C145.340816,13.1877551 145.395918,13.022449 145.45102,11.7 L145.52449,10.2489796 L143.797959,9.56938776 C142.861224,9.18367347 141.704082,8.59591837 141.226531,8.24693878 C138.526531,6.26326531 139.389796,2.82857143 142.604082,2.82857143 C143.834694,2.82857143 144.532653,3.14081633 145.193878,3.96734694 C145.634694,4.53673469 145.671429,4.53673469 145.671429,4.15102041 C145.671429,3.9122449 145.873469,3.52653061 146.130612,3.2877551 C146.479592,2.92040816 146.755102,2.82857143 147.508163,2.82857143 C148.959184,2.82857143 149.528571,3.63673469 149.528571,5.69387755 C149.528571,6.42857143 149.491837,6.50204082 149.069388,6.50204082 C148.665306,6.50204082 148.610204,6.42857143 148.610204,5.82244898 C148.610204,4.7755102 148.426531,4.27959184 148.077551,4.33469388 C147.820408,4.38979592 147.765306,4.92244898 147.691837,8.61428571 C147.581633,13.4816327 147.526531,13.7020408 146.185714,14.3632653 C144.973469,14.9693878 143.44898,15.0612245 142.291837,14.6020408 Z M145.432653,7.62244898 C145.285714,5.43673469 144.587755,4.13265306 143.430612,3.83877551 C143.044898,3.74693878 142.82449,3.82040816 142.438776,4.20612245 C141.997959,4.64693878 141.961224,4.79387755 142.034694,5.78571429 C142.108163,6.72244898 142.2,6.96122449 142.75102,7.53061224 C143.37551,8.19183673 144.808163,9.05510204 145.285714,9.07346939 C145.487755,9.07346939 145.52449,8.79795918 145.432653,7.62244898 Z" id="Shape"></path>
            <path d="M154.671429,14.6020408 C154.24898,14.3816327 153.863265,13.9408163 153.532653,13.2979592 L153.018367,12.3428571 L153.018367,13.5734694 L153.018367,14.822449 L152.063265,14.6938776 C151.530612,14.6387755 150.777551,14.5836735 150.410204,14.5836735 C149.785714,14.5836735 149.712245,14.5285714 149.712245,14.1244898 C149.712245,13.7938776 149.804082,13.6653061 150.042857,13.6653061 C150.244898,13.6653061 150.538776,13.5 150.740816,13.2795918 C151.053061,12.9306122 151.089796,12.5265306 151.144898,8.79795918 L151.2,4.70204082 L150.704082,4.31632653 C150.428571,4.11428571 150.097959,3.93061224 149.95102,3.93061224 C149.785714,3.93061224 149.712245,3.78367347 149.74898,3.52653061 C149.804082,3.10408163 149.859184,3.10408163 152.522449,3.04897959 L155.222449,2.99387755 L155.222449,3.43469388 C155.222449,3.78367347 155.093878,3.89387755 154.45102,4.04081633 C153.404082,4.26122449 153.202041,4.70204082 153.202041,6.77755102 C153.220408,10.9469388 154.24898,14.0510204 155.626531,14.0326531 L156.04898,14.0326531 L155.644898,13.7020408 C155.130612,13.2979592 154.965306,12.6 155.222449,11.9204082 C155.589796,10.9469388 156.434694,10.8 157.040816,11.5714286 C157.77551,12.4897959 157.426531,14.1795918 156.416327,14.6571429 C155.644898,15.0244898 155.442857,15.0244898 154.671429,14.6020408 Z" id="Shape"></path>
            <path d="M160.47551,14.5836735 C158.840816,13.9408163 157.793878,12.4897959 157.426531,10.3040816 C157.004082,7.97142857 157.646939,5.58367347 159.061224,4.1877551 C160.126531,3.14081633 161.118367,2.75510204 162.642857,2.86530612 C164.534694,2.9755102 165.618367,3.93061224 166.15102,5.96938776 C166.371429,6.81428571 166.371429,6.8877551 166.022449,7.07142857 C165.581633,7.31020408 165.655102,7.40204082 165.140816,5.9877551 C164.608163,4.53673469 163.855102,3.8755102 162.661224,3.85714286 C161.118367,3.82040816 160.071429,5.21632653 159.869388,7.56734694 L159.759184,8.88979592 L163.028571,8.88979592 L166.297959,8.88979592 L166.187755,10.1204082 C166.040816,11.6081633 165.195918,13.4632653 164.406122,14.0326531 C163.744898,14.5102041 162.495918,14.9510204 161.853061,14.9510204 C161.595918,14.9326531 160.971429,14.7673469 160.47551,14.5836735 Z M162.734694,13.7387755 C163.304082,13.3346939 163.634694,12.4897959 163.781633,11.0204082 L163.910204,9.80816327 L161.834694,9.80816327 L159.759184,9.80816327 L159.85102,10.9653061 C159.961224,12.3612245 160.420408,13.4081633 161.081633,13.7571429 C161.72449,14.1061224 162.220408,14.0877551 162.734694,13.7387755 Z" id="Shape"></path>
        </g>
    </g>
</svg>
