<?xml version="1.0" standalone="no"?>
<!DOCTYPE svg PUBLIC "-//W3C//DTD SVG 20010904//EN"
 "http://www.w3.org/TR/2001/REC-SVG-20010904/DTD/svg10.dtd">
<svg version="1.0" xmlns="http://www.w3.org/2000/svg"
 width="1000.000000pt" height="271.000000pt" viewBox="0 0 1000.000000 271.000000"
 preserveAspectRatio="xMidYMid meet">
<metadata>
Created by potrace 1.15, written by Peter Selinger 2001-2017
</metadata>
<g transform="translate(0.000000,271.000000) scale(0.100000,-0.100000)"
fill="#BABCBE" stroke="none">
<path d="M1085 2180 c-27 -16 -78 -44 -112 -62 -66 -34 -81 -58 -37 -58 l26 0
-5 -452 c-3 -371 -7 -464 -20 -513 -37 -142 -134 -246 -218 -233 -22 3 -21 5
12 21 76 37 122 110 150 236 17 77 19 131 19 519 0 365 -2 433 -14 430 -8 -2
-102 -50 -211 -108 l-196 -105 3 -405 c3 -305 7 -414 17 -440 12 -31 175 -200
193 -200 4 0 18 -11 31 -24 97 -97 290 -7 364 169 59 139 72 302 73 863 0 307
-3 392 -12 391 -7 0 -35 -13 -63 -29z m5 -472 c0 -507 -12 -623 -77 -753 -47
-94 -128 -156 -202 -154 l-46 1 35 11 c43 14 130 99 159 155 12 23 31 81 43
129 20 83 22 118 26 561 l4 472 29 0 29 0 0 -422z m-262 283 c12 -7 13 -79 9
-402 -5 -418 -11 -480 -57 -565 -27 -51 -87 -104 -117 -104 -31 0 -29 10 10
39 37 27 60 69 84 151 13 45 16 131 20 473 5 378 7 417 22 417 9 0 22 -4 29
-9z"/>
<path d="M2832 1824 c-29 -20 -32 -112 -4 -137 48 -44 112 -5 112 68 0 73 -53
108 -108 69z"/>
<path d="M4343 1833 c-70 -4 -73 -5 -73 -28 0 -19 5 -25 23 -25 13 0 32 -6 43
-14 17 -13 19 -29 22 -143 2 -115 1 -126 -13 -109 -42 54 -127 72 -199 42
-110 -46 -179 -215 -155 -382 22 -157 106 -254 219 -254 54 0 102 21 128 56
l21 29 1 -39 0 -39 53 7 c28 3 71 6 95 6 38 0 42 2 42 24 0 18 -7 25 -29 29
-47 10 -51 41 -51 465 l0 382 -27 -2 c-16 -1 -61 -4 -100 -5z m-56 -335 c50
-41 79 -198 63 -337 -10 -90 -27 -137 -61 -168 -39 -36 -71 -38 -107 -8 -45
38 -66 140 -59 288 5 127 25 196 65 228 28 22 71 21 99 -3z"/>
<path d="M6393 1833 c-69 -4 -73 -5 -73 -27 0 -18 7 -25 31 -30 59 -11 58 -8
59 -398 l0 -357 -26 -20 c-40 -32 -55 -28 -43 11 5 18 9 50 9 70 0 34 -3 38
-25 38 -22 0 -25 -4 -25 -34 0 -67 -37 -115 -54 -70 -3 9 -6 113 -6 232 0 200
-2 220 -20 250 -29 47 -89 72 -176 72 -120 0 -192 -53 -202 -148 -4 -41 -1
-53 17 -71 26 -26 65 -27 91 -1 27 27 27 93 0 120 -19 19 -19 19 3 35 12 9 43
15 72 15 75 0 96 -26 103 -123 l4 -74 -73 -28 c-170 -65 -249 -137 -249 -224
0 -94 59 -151 158 -151 64 0 112 19 140 55 l22 27 9 -25 c22 -57 113 -77 165
-36 17 13 26 16 24 7 -2 -10 26 -14 140 -16 l142 -3 0 25 c0 19 -7 26 -29 31
-16 3 -34 12 -40 19 -7 8 -12 153 -13 422 l-3 409 -30 1 c-16 0 -63 -1 -102
-3z m-263 -610 c0 -56 -26 -168 -46 -198 -16 -25 -62 -55 -84 -55 -6 0 -22 11
-35 25 -19 18 -25 35 -25 70 0 53 16 88 57 127 25 24 105 67 126 68 4 0 7 -17
7 -37z"/>
<path d="M7023 1833 c-70 -4 -73 -5 -73 -28 0 -19 5 -25 23 -25 12 0 33 -7 45
-16 l22 -15 0 -360 c0 -219 -4 -368 -10 -379 -5 -10 -23 -21 -40 -25 -23 -5
-30 -12 -30 -31 l0 -24 140 0 140 0 0 24 c0 19 -7 26 -29 31 -51 11 -53 19
-49 217 2 153 6 188 21 216 50 92 124 116 164 55 16 -24 18 -59 21 -285 l3
-258 95 0 c94 0 94 0 94 25 0 14 -6 25 -14 25 -7 0 -25 9 -40 21 l-26 20 0
217 c0 192 -2 221 -19 252 -28 53 -74 80 -138 80 -62 0 -100 -17 -137 -60
l-26 -31 -2 178 -3 178 -30 1 c-16 0 -63 -1 -102 -3z"/>
<path d="M1480 1801 c0 -16 6 -34 14 -40 12 -10 15 -72 18 -340 l3 -327 30
-60 c26 -50 38 -63 87 -88 110 -56 267 -44 341 27 61 57 67 99 67 438 0 165 4
309 10 323 6 17 22 29 50 37 32 10 40 17 40 36 0 23 0 23 -130 23 l-130 0 0
-24 c0 -19 7 -25 35 -30 66 -13 66 -15 63 -383 l-3 -330 -29 -37 c-70 -92
-199 -88 -270 7 -20 27 -21 41 -24 369 -2 243 0 344 9 354 6 7 26 16 45 20 27
5 34 11 34 30 l0 24 -130 0 -130 0 0 -29z"/>
<path d="M4580 1806 c0 -18 8 -25 32 -32 56 -16 58 -26 58 -394 0 -368 -2
-378 -58 -394 -24 -7 -32 -14 -32 -32 l0 -24 155 0 155 0 0 24 c0 19 -7 26
-30 31 -58 13 -60 19 -60 216 l0 179 135 0 135 0 0 -176 c0 -96 -4 -183 -10
-193 -5 -10 -25 -22 -45 -25 -29 -6 -35 -11 -35 -31 l0 -25 160 0 160 0 0 24
c0 18 -7 25 -32 30 -60 12 -58 -4 -58 396 0 400 -2 384 58 396 25 5 32 12 32
30 l0 24 -160 0 -160 0 0 -25 c0 -20 6 -25 35 -31 20 -3 40 -15 45 -25 6 -10
10 -85 10 -168 l0 -151 -135 0 -135 0 0 153 c0 168 3 177 63 192 20 5 27 13
27 31 l0 24 -155 0 -155 0 0 -24z"/>
<path d="M3180 1777 c0 -14 -9 -54 -20 -90 -21 -67 -55 -108 -107 -128 -16 -6
-23 -17 -23 -34 0 -23 4 -25 40 -25 l40 0 0 -244 c0 -236 1 -244 23 -277 12
-18 34 -39 47 -46 36 -18 109 -16 150 5 43 21 69 87 70 175 0 54 -1 57 -25 57
-24 0 -25 -3 -25 -55 0 -103 -53 -172 -100 -130 -18 16 -20 33 -22 266 l-3
249 78 0 77 0 0 30 0 30 -77 0 -78 0 0 117 c0 115 -1 118 -22 121 -19 3 -23
-1 -23 -21z"/>
<path d="M6745 1749 c-14 -99 -60 -168 -127 -192 -11 -4 -18 -17 -18 -32 0
-23 4 -25 40 -25 l40 0 0 -244 c0 -236 1 -244 23 -277 28 -42 60 -59 115 -59
100 0 142 49 150 178 l5 72 -27 0 c-25 0 -26 -3 -27 -52 0 -71 -18 -119 -51
-137 -24 -14 -28 -14 -47 3 -20 18 -21 29 -21 268 l0 248 75 0 75 0 0 30 0 30
-75 0 -74 0 -3 118 c-3 111 -4 117 -24 120 -19 3 -23 -3 -29 -49z"/>
<path d="M2198 1563 c-86 -4 -88 -4 -88 -28 0 -20 5 -25 25 -25 14 0 34 -9 45
-20 19 -19 20 -33 20 -238 0 -240 -3 -255 -60 -267 -23 -5 -30 -12 -30 -31 l0
-24 145 0 145 0 0 24 c0 19 -7 26 -30 31 -56 12 -63 36 -58 212 3 146 6 162
30 215 18 38 38 64 60 78 43 26 64 25 93 -5 l25 -24 0 -266 0 -265 100 0 c99
0 100 0 100 24 0 19 -7 26 -29 31 -16 3 -34 12 -40 18 -5 7 -11 109 -13 243
-3 254 -6 265 -71 304 -38 24 -125 27 -165 6 -30 -16 -77 -63 -85 -86 -3 -8
-6 11 -6 43 -1 40 -5 56 -13 55 -7 -1 -52 -4 -100 -5z"/>
<path d="M2740 1547 c0 -19 8 -25 38 -33 l37 -9 3 -244 c1 -164 -1 -248 -9
-257 -5 -7 -24 -16 -40 -19 -22 -5 -29 -12 -29 -31 l0 -24 145 0 c145 0 145 0
145 23 0 17 -8 25 -32 32 -55 17 -58 33 -58 323 l0 262 -100 0 c-98 0 -100 0
-100 -23z"/>
<path d="M3595 1552 c-96 -46 -147 -139 -153 -278 -6 -128 20 -208 93 -280 57
-57 98 -74 181 -74 98 0 178 67 206 173 11 41 10 49 -2 57 -27 17 -36 11 -48
-32 -25 -93 -74 -140 -147 -142 -37 -1 -49 4 -79 33 -39 38 -63 97 -73 178
l-6 53 177 0 c153 0 177 2 183 16 10 26 -24 162 -52 210 -39 66 -93 98 -174
102 -49 2 -76 -2 -106 -16z m147 -49 c29 -34 41 -68 48 -135 l6 -68 -113 0
-113 0 0 30 c0 60 22 130 50 160 22 24 36 30 67 30 26 0 45 -6 55 -17z"/>
<path d="M5465 1552 c-49 -23 -100 -80 -129 -141 -17 -38 -21 -66 -21 -156 0
-105 2 -114 33 -177 54 -109 127 -158 239 -158 68 0 130 33 169 91 35 53 52
128 32 141 -25 16 -34 7 -47 -43 -17 -65 -61 -115 -112 -129 -50 -14 -75 -6
-117 33 -34 33 -55 88 -67 180 l-6 47 176 0 c145 0 177 3 181 15 11 28 -17
151 -47 203 -42 74 -94 106 -178 110 -49 2 -77 -2 -106 -16z m152 -54 c26 -28
43 -88 43 -150 l0 -48 -111 0 -110 0 7 58 c8 72 30 128 57 147 33 23 90 19
114 -7z"/>
<path d="M7763 1540 c-111 -45 -185 -170 -186 -316 -2 -185 108 -324 256 -324
116 0 189 69 204 191 6 47 5 49 -19 49 -23 0 -27 -5 -32 -44 -4 -24 -20 -63
-36 -85 -62 -85 -158 -75 -209 24 -24 47 -26 59 -26 190 0 134 1 142 28 193
44 83 110 112 177 77 36 -19 60 -56 31 -48 -31 8 -51 -23 -51 -82 0 -50 2 -56
30 -70 39 -20 47 -19 75 10 31 30 33 100 6 162 -36 78 -150 111 -248 73z"/>
<path d="M8226 1541 c-59 -24 -85 -46 -102 -88 -21 -49 -17 -90 11 -118 29
-30 55 -32 86 -6 35 28 34 104 -1 131 l-25 19 37 15 c55 23 102 20 135 -8 25
-22 28 -31 31 -103 l4 -79 -94 -37 c-51 -21 -114 -53 -140 -72 -147 -108 -100
-295 75 -295 67 0 105 17 141 62 24 31 26 31 26 10 0 -13 11 -34 25 -47 19
-20 34 -25 75 -25 79 0 110 44 110 156 0 40 -2 44 -25 44 -22 0 -25 -4 -25
-37 0 -57 -10 -84 -29 -81 -14 3 -17 32 -21 233 -6 265 -9 277 -82 313 -66 33
-149 38 -212 13z m171 -380 c-8 -119 -46 -190 -109 -206 -21 -5 -33 -1 -54 20
-24 24 -26 32 -22 86 4 51 9 64 39 95 34 36 112 83 138 84 11 0 13 -15 8 -79z"/>
<path d="M8900 1541 c-23 -12 -44 -36 -62 -71 l-28 -52 0 67 0 68 -52 -7 c-29
-3 -70 -6 -90 -6 -34 0 -38 -3 -38 -25 0 -18 5 -25 18 -25 11 0 27 -9 38 -21
17 -19 19 -41 22 -244 l3 -223 -27 -21 c-15 -11 -33 -21 -41 -21 -9 0 -13 -8
-11 -22 3 -23 6 -23 151 -26 l147 -3 0 24 c0 19 -7 25 -42 33 -57 12 -68 36
-68 149 1 227 57 396 132 395 l23 0 -22 -18 c-28 -22 -37 -60 -23 -97 20 -53
66 -61 99 -19 40 50 21 142 -34 168 -42 20 -53 20 -95 -3z"/>
<path d="M9216 1540 c-89 -35 -146 -114 -166 -233 -23 -127 12 -257 89 -333
58 -57 112 -78 195 -72 103 6 162 58 191 169 12 46 12 50 -7 60 -24 13 -20 18
-48 -59 -29 -79 -70 -115 -135 -116 -84 -2 -141 74 -152 202 l-6 72 178 0 178
0 -6 67 c-8 81 -54 182 -97 213 -36 26 -104 50 -139 50 -14 -1 -48 -10 -75
-20z m123 -46 c31 -22 49 -68 57 -148 l7 -66 -113 0 -113 0 5 63 c6 76 31 133
67 152 35 19 62 18 90 -1z"/>
</g>
</svg>
